<?xml version="1.0" encoding="utf-8" standalone="no"?>
<!DOCTYPE svg PUBLIC "-//W3C//DTD SVG 1.1//EN"
  "http://www.w3.org/Graphics/SVG/1.1/DTD/svg11.dtd">
<svg xmlns:xlink="http://www.w3.org/1999/xlink" width="950.4pt" height="460.8pt" viewBox="0 0 950.4 460.8" xmlns="http://www.w3.org/2000/svg" version="1.1">
 <metadata>
  <rdf:RDF xmlns:dc="http://purl.org/dc/elements/1.1/" xmlns:cc="http://creativecommons.org/ns#" xmlns:rdf="http://www.w3.org/1999/02/22-rdf-syntax-ns#">
   <cc:Work>
    <dc:type rdf:resource="http://purl.org/dc/dcmitype/StillImage"/>
    <dc:date>2026-04-27T09:05:53.972655</dc:date>
    <dc:format>image/svg+xml</dc:format>
    <dc:creator>
     <cc:Agent>
      <dc:title>Matplotlib v3.10.9, https://matplotlib.org/</dc:title>
     </cc:Agent>
    </dc:creator>
   </cc:Work>
  </rdf:RDF>
 </metadata>
 <defs>
  <style type="text/css">*{stroke-linejoin: round; stroke-linecap: butt}</style>
 </defs>
 <g id="figure_1">
  <g id="patch_1">
   <path d="M 0 460.8 
L 950.4 460.8 
L 950.4 0 
L 0 0 
z
" style="fill: #fffaf1"/>
  </g>
  <g id="axes_1">
   <g id="patch_2">
    <path d="M 57.01 409.64 
L 637.519426 409.64 
L 637.519426 51.68 
L 57.01 51.68 
z
" style="fill: #fffdf7"/>
   </g>
   <g id="matplotlib.axis_1">
    <g id="xtick_1">
     <g id="line2d_1">
      <path d="M 57.01 409.64 
L 57.01 51.68 
" clip-path="url(#p2273c551b6)" style="fill: none; stroke: #eadcc4; stroke-width: 0.9; stroke-linecap: square"/>
     </g>
     <g id="line2d_2">
      <defs>
       <path id="m7130cc8c1d" d="M 0 0 
L 0 3.5 
" style="stroke: #000000; stroke-width: 0.8"/>
      </defs>
      <g>
       <use xlink:href="#m7130cc8c1d" x="57.01" y="409.64" style="stroke: #000000; stroke-width: 0.8"/>
      </g>
     </g>
     <g id="text_1">
      <!-- 0 -->
      <g transform="translate(53.82875 424.238438) scale(0.1 -0.1)">
       <defs>
        <path id="DejaVuSans-30" d="M 2034 4250 
Q 1547 4250 1301 3770 
Q 1056 3291 1056 2328 
Q 1056 1369 1301 889 
Q 1547 409 2034 409 
Q 2525 409 2770 889 
Q 3016 1369 3016 2328 
Q 3016 3291 2770 3770 
Q 2525 4250 2034 4250 
z
M 2034 4750 
Q 2819 4750 3233 4129 
Q 3647 3509 3647 2328 
Q 3647 1150 3233 529 
Q 2819 -91 2034 -91 
Q 1250 -91 836 529 
Q 422 1150 422 2328 
Q 422 3509 836 4129 
Q 1250 4750 2034 4750 
z
" transform="scale(0.015625)"/>
       </defs>
       <use xlink:href="#DejaVuSans-30"/>
      </g>
     </g>
    </g>
    <g id="xtick_2">
     <g id="line2d_3">
      <path d="M 128.67783 409.64 
L 128.67783 51.68 
" clip-path="url(#p2273c551b6)" style="fill: none; stroke: #eadcc4; stroke-width: 0.9; stroke-linecap: square"/>
     </g>
     <g id="line2d_4">
      <g>
       <use xlink:href="#m7130cc8c1d" x="128.67783" y="409.64" style="stroke: #000000; stroke-width: 0.8"/>
      </g>
     </g>
     <g id="text_2">
      <!-- 200 -->
      <g transform="translate(119.13408 424.238438) scale(0.1 -0.1)">
       <defs>
        <path id="DejaVuSans-32" d="M 1228 531 
L 3431 531 
L 3431 0 
L 469 0 
L 469 531 
Q 828 903 1448 1529 
Q 2069 2156 2228 2338 
Q 2531 2678 2651 2914 
Q 2772 3150 2772 3378 
Q 2772 3750 2511 3984 
Q 2250 4219 1831 4219 
Q 1534 4219 1204 4116 
Q 875 4013 500 3803 
L 500 4441 
Q 881 4594 1212 4672 
Q 1544 4750 1819 4750 
Q 2544 4750 2975 4387 
Q 3406 4025 3406 3419 
Q 3406 3131 3298 2873 
Q 3191 2616 2906 2266 
Q 2828 2175 2409 1742 
Q 1991 1309 1228 531 
z
" transform="scale(0.015625)"/>
       </defs>
       <use xlink:href="#DejaVuSans-32"/>
       <use xlink:href="#DejaVuSans-30" transform="translate(63.623047 0)"/>
       <use xlink:href="#DejaVuSans-30" transform="translate(127.246094 0)"/>
      </g>
     </g>
    </g>
    <g id="xtick_3">
     <g id="line2d_5">
      <path d="M 200.345661 409.64 
L 200.345661 51.68 
" clip-path="url(#p2273c551b6)" style="fill: none; stroke: #eadcc4; stroke-width: 0.9; stroke-linecap: square"/>
     </g>
     <g id="line2d_6">
      <g>
       <use xlink:href="#m7130cc8c1d" x="200.345661" y="409.64" style="stroke: #000000; stroke-width: 0.8"/>
      </g>
     </g>
     <g id="text_3">
      <!-- 400 -->
      <g transform="translate(190.801911 424.238438) scale(0.1 -0.1)">
       <defs>
        <path id="DejaVuSans-34" d="M 2419 4116 
L 825 1625 
L 2419 1625 
L 2419 4116 
z
M 2253 4666 
L 3047 4666 
L 3047 1625 
L 3713 1625 
L 3713 1100 
L 3047 1100 
L 3047 0 
L 2419 0 
L 2419 1100 
L 313 1100 
L 313 1709 
L 2253 4666 
z
" transform="scale(0.015625)"/>
       </defs>
       <use xlink:href="#DejaVuSans-34"/>
       <use xlink:href="#DejaVuSans-30" transform="translate(63.623047 0)"/>
       <use xlink:href="#DejaVuSans-30" transform="translate(127.246094 0)"/>
      </g>
     </g>
    </g>
    <g id="xtick_4">
     <g id="line2d_7">
      <path d="M 272.013491 409.64 
L 272.013491 51.68 
" clip-path="url(#p2273c551b6)" style="fill: none; stroke: #eadcc4; stroke-width: 0.9; stroke-linecap: square"/>
     </g>
     <g id="line2d_8">
      <g>
       <use xlink:href="#m7130cc8c1d" x="272.013491" y="409.64" style="stroke: #000000; stroke-width: 0.8"/>
      </g>
     </g>
     <g id="text_4">
      <!-- 600 -->
      <g transform="translate(262.469741 424.238438) scale(0.1 -0.1)">
       <defs>
        <path id="DejaVuSans-36" d="M 2113 2584 
Q 1688 2584 1439 2293 
Q 1191 2003 1191 1497 
Q 1191 994 1439 701 
Q 1688 409 2113 409 
Q 2538 409 2786 701 
Q 3034 994 3034 1497 
Q 3034 2003 2786 2293 
Q 2538 2584 2113 2584 
z
M 3366 4563 
L 3366 3988 
Q 3128 4100 2886 4159 
Q 2644 4219 2406 4219 
Q 1781 4219 1451 3797 
Q 1122 3375 1075 2522 
Q 1259 2794 1537 2939 
Q 1816 3084 2150 3084 
Q 2853 3084 3261 2657 
Q 3669 2231 3669 1497 
Q 3669 778 3244 343 
Q 2819 -91 2113 -91 
Q 1303 -91 875 529 
Q 447 1150 447 2328 
Q 447 3434 972 4092 
Q 1497 4750 2381 4750 
Q 2619 4750 2861 4703 
Q 3103 4656 3366 4563 
z
" transform="scale(0.015625)"/>
       </defs>
       <use xlink:href="#DejaVuSans-36"/>
       <use xlink:href="#DejaVuSans-30" transform="translate(63.623047 0)"/>
       <use xlink:href="#DejaVuSans-30" transform="translate(127.246094 0)"/>
      </g>
     </g>
    </g>
    <g id="xtick_5">
     <g id="line2d_9">
      <path d="M 343.681321 409.64 
L 343.681321 51.68 
" clip-path="url(#p2273c551b6)" style="fill: none; stroke: #eadcc4; stroke-width: 0.9; stroke-linecap: square"/>
     </g>
     <g id="line2d_10">
      <g>
       <use xlink:href="#m7130cc8c1d" x="343.681321" y="409.64" style="stroke: #000000; stroke-width: 0.8"/>
      </g>
     </g>
     <g id="text_5">
      <!-- 800 -->
      <g transform="translate(334.137571 424.238438) scale(0.1 -0.1)">
       <defs>
        <path id="DejaVuSans-38" d="M 2034 2216 
Q 1584 2216 1326 1975 
Q 1069 1734 1069 1313 
Q 1069 891 1326 650 
Q 1584 409 2034 409 
Q 2484 409 2743 651 
Q 3003 894 3003 1313 
Q 3003 1734 2745 1975 
Q 2488 2216 2034 2216 
z
M 1403 2484 
Q 997 2584 770 2862 
Q 544 3141 544 3541 
Q 544 4100 942 4425 
Q 1341 4750 2034 4750 
Q 2731 4750 3128 4425 
Q 3525 4100 3525 3541 
Q 3525 3141 3298 2862 
Q 3072 2584 2669 2484 
Q 3125 2378 3379 2068 
Q 3634 1759 3634 1313 
Q 3634 634 3220 271 
Q 2806 -91 2034 -91 
Q 1263 -91 848 271 
Q 434 634 434 1313 
Q 434 1759 690 2068 
Q 947 2378 1403 2484 
z
M 1172 3481 
Q 1172 3119 1398 2916 
Q 1625 2713 2034 2713 
Q 2441 2713 2670 2916 
Q 2900 3119 2900 3481 
Q 2900 3844 2670 4047 
Q 2441 4250 2034 4250 
Q 1625 4250 1398 4047 
Q 1172 3844 1172 3481 
z
" transform="scale(0.015625)"/>
       </defs>
       <use xlink:href="#DejaVuSans-38"/>
       <use xlink:href="#DejaVuSans-30" transform="translate(63.623047 0)"/>
       <use xlink:href="#DejaVuSans-30" transform="translate(127.246094 0)"/>
      </g>
     </g>
    </g>
    <g id="xtick_6">
     <g id="line2d_11">
      <path d="M 415.349152 409.64 
L 415.349152 51.68 
" clip-path="url(#p2273c551b6)" style="fill: none; stroke: #eadcc4; stroke-width: 0.9; stroke-linecap: square"/>
     </g>
     <g id="line2d_12">
      <g>
       <use xlink:href="#m7130cc8c1d" x="415.349152" y="409.64" style="stroke: #000000; stroke-width: 0.8"/>
      </g>
     </g>
     <g id="text_6">
      <!-- 1000 -->
      <g transform="translate(402.624152 424.238438) scale(0.1 -0.1)">
       <defs>
        <path id="DejaVuSans-31" d="M 794 531 
L 1825 531 
L 1825 4091 
L 703 3866 
L 703 4441 
L 1819 4666 
L 2450 4666 
L 2450 531 
L 3481 531 
L 3481 0 
L 794 0 
L 794 531 
z
" transform="scale(0.015625)"/>
       </defs>
       <use xlink:href="#DejaVuSans-31"/>
       <use xlink:href="#DejaVuSans-30" transform="translate(63.623047 0)"/>
       <use xlink:href="#DejaVuSans-30" transform="translate(127.246094 0)"/>
       <use xlink:href="#DejaVuSans-30" transform="translate(190.869141 0)"/>
      </g>
     </g>
    </g>
    <g id="xtick_7">
     <g id="line2d_13">
      <path d="M 487.016982 409.64 
L 487.016982 51.68 
" clip-path="url(#p2273c551b6)" style="fill: none; stroke: #eadcc4; stroke-width: 0.9; stroke-linecap: square"/>
     </g>
     <g id="line2d_14">
      <g>
       <use xlink:href="#m7130cc8c1d" x="487.016982" y="409.64" style="stroke: #000000; stroke-width: 0.8"/>
      </g>
     </g>
     <g id="text_7">
      <!-- 1200 -->
      <g transform="translate(474.291982 424.238438) scale(0.1 -0.1)">
       <use xlink:href="#DejaVuSans-31"/>
       <use xlink:href="#DejaVuSans-32" transform="translate(63.623047 0)"/>
       <use xlink:href="#DejaVuSans-30" transform="translate(127.246094 0)"/>
       <use xlink:href="#DejaVuSans-30" transform="translate(190.869141 0)"/>
      </g>
     </g>
    </g>
    <g id="xtick_8">
     <g id="line2d_15">
      <path d="M 558.684812 409.64 
L 558.684812 51.68 
" clip-path="url(#p2273c551b6)" style="fill: none; stroke: #eadcc4; stroke-width: 0.9; stroke-linecap: square"/>
     </g>
     <g id="line2d_16">
      <g>
       <use xlink:href="#m7130cc8c1d" x="558.684812" y="409.64" style="stroke: #000000; stroke-width: 0.8"/>
      </g>
     </g>
     <g id="text_8">
      <!-- 1400 -->
      <g transform="translate(545.959812 424.238438) scale(0.1 -0.1)">
       <use xlink:href="#DejaVuSans-31"/>
       <use xlink:href="#DejaVuSans-34" transform="translate(63.623047 0)"/>
       <use xlink:href="#DejaVuSans-30" transform="translate(127.246094 0)"/>
       <use xlink:href="#DejaVuSans-30" transform="translate(190.869141 0)"/>
      </g>
     </g>
    </g>
    <g id="xtick_9">
     <g id="line2d_17">
      <path d="M 630.352643 409.64 
L 630.352643 51.68 
" clip-path="url(#p2273c551b6)" style="fill: none; stroke: #eadcc4; stroke-width: 0.9; stroke-linecap: square"/>
     </g>
     <g id="line2d_18">
      <g>
       <use xlink:href="#m7130cc8c1d" x="630.352643" y="409.64" style="stroke: #000000; stroke-width: 0.8"/>
      </g>
     </g>
     <g id="text_9">
      <!-- 1600 -->
      <g transform="translate(617.627643 424.238438) scale(0.1 -0.1)">
       <use xlink:href="#DejaVuSans-31"/>
       <use xlink:href="#DejaVuSans-36" transform="translate(63.623047 0)"/>
       <use xlink:href="#DejaVuSans-30" transform="translate(127.246094 0)"/>
       <use xlink:href="#DejaVuSans-30" transform="translate(190.869141 0)"/>
      </g>
     </g>
    </g>
    <g id="text_10">
     <!-- environment steps -->
     <g transform="translate(300.414713 437.916563) scale(0.1 -0.1)">
      <defs>
       <path id="DejaVuSans-65" d="M 3597 1894 
L 3597 1613 
L 953 1613 
Q 991 1019 1311 708 
Q 1631 397 2203 397 
Q 2534 397 2845 478 
Q 3156 559 3463 722 
L 3463 178 
Q 3153 47 2828 -22 
Q 2503 -91 2169 -91 
Q 1331 -91 842 396 
Q 353 884 353 1716 
Q 353 2575 817 3079 
Q 1281 3584 2069 3584 
Q 2775 3584 3186 3129 
Q 3597 2675 3597 1894 
z
M 3022 2063 
Q 3016 2534 2758 2815 
Q 2500 3097 2075 3097 
Q 1594 3097 1305 2825 
Q 1016 2553 972 2059 
L 3022 2063 
z
" transform="scale(0.015625)"/>
       <path id="DejaVuSans-6e" d="M 3513 2113 
L 3513 0 
L 2938 0 
L 2938 2094 
Q 2938 2591 2744 2837 
Q 2550 3084 2163 3084 
Q 1697 3084 1428 2787 
Q 1159 2491 1159 1978 
L 1159 0 
L 581 0 
L 581 3500 
L 1159 3500 
L 1159 2956 
Q 1366 3272 1645 3428 
Q 1925 3584 2291 3584 
Q 2894 3584 3203 3211 
Q 3513 2838 3513 2113 
z
" transform="scale(0.015625)"/>
       <path id="DejaVuSans-76" d="M 191 3500 
L 800 3500 
L 1894 563 
L 2988 3500 
L 3597 3500 
L 2284 0 
L 1503 0 
L 191 3500 
z
" transform="scale(0.015625)"/>
       <path id="DejaVuSans-69" d="M 603 3500 
L 1178 3500 
L 1178 0 
L 603 0 
L 603 3500 
z
M 603 4863 
L 1178 4863 
L 1178 4134 
L 603 4134 
L 603 4863 
z
" transform="scale(0.015625)"/>
       <path id="DejaVuSans-72" d="M 2631 2963 
Q 2534 3019 2420 3045 
Q 2306 3072 2169 3072 
Q 1681 3072 1420 2755 
Q 1159 2438 1159 1844 
L 1159 0 
L 581 0 
L 581 3500 
L 1159 3500 
L 1159 2956 
Q 1341 3275 1631 3429 
Q 1922 3584 2338 3584 
Q 2397 3584 2469 3576 
Q 2541 3569 2628 3553 
L 2631 2963 
z
" transform="scale(0.015625)"/>
       <path id="DejaVuSans-6f" d="M 1959 3097 
Q 1497 3097 1228 2736 
Q 959 2375 959 1747 
Q 959 1119 1226 758 
Q 1494 397 1959 397 
Q 2419 397 2687 759 
Q 2956 1122 2956 1747 
Q 2956 2369 2687 2733 
Q 2419 3097 1959 3097 
z
M 1959 3584 
Q 2709 3584 3137 3096 
Q 3566 2609 3566 1747 
Q 3566 888 3137 398 
Q 2709 -91 1959 -91 
Q 1206 -91 779 398 
Q 353 888 353 1747 
Q 353 2609 779 3096 
Q 1206 3584 1959 3584 
z
" transform="scale(0.015625)"/>
       <path id="DejaVuSans-6d" d="M 3328 2828 
Q 3544 3216 3844 3400 
Q 4144 3584 4550 3584 
Q 5097 3584 5394 3201 
Q 5691 2819 5691 2113 
L 5691 0 
L 5113 0 
L 5113 2094 
Q 5113 2597 4934 2840 
Q 4756 3084 4391 3084 
Q 3944 3084 3684 2787 
Q 3425 2491 3425 1978 
L 3425 0 
L 2847 0 
L 2847 2094 
Q 2847 2600 2669 2842 
Q 2491 3084 2119 3084 
Q 1678 3084 1418 2786 
Q 1159 2488 1159 1978 
L 1159 0 
L 581 0 
L 581 3500 
L 1159 3500 
L 1159 2956 
Q 1356 3278 1631 3431 
Q 1906 3584 2284 3584 
Q 2666 3584 2933 3390 
Q 3200 3197 3328 2828 
z
" transform="scale(0.015625)"/>
       <path id="DejaVuSans-74" d="M 1172 4494 
L 1172 3500 
L 2356 3500 
L 2356 3053 
L 1172 3053 
L 1172 1153 
Q 1172 725 1289 603 
Q 1406 481 1766 481 
L 2356 481 
L 2356 0 
L 1766 0 
Q 1100 0 847 248 
Q 594 497 594 1153 
L 594 3053 
L 172 3053 
L 172 3500 
L 594 3500 
L 594 4494 
L 1172 4494 
z
" transform="scale(0.015625)"/>
       <path id="DejaVuSans-20" transform="scale(0.015625)"/>
       <path id="DejaVuSans-73" d="M 2834 3397 
L 2834 2853 
Q 2591 2978 2328 3040 
Q 2066 3103 1784 3103 
Q 1356 3103 1142 2972 
Q 928 2841 928 2578 
Q 928 2378 1081 2264 
Q 1234 2150 1697 2047 
L 1894 2003 
Q 2506 1872 2764 1633 
Q 3022 1394 3022 966 
Q 3022 478 2636 193 
Q 2250 -91 1575 -91 
Q 1294 -91 989 -36 
Q 684 19 347 128 
L 347 722 
Q 666 556 975 473 
Q 1284 391 1588 391 
Q 1994 391 2212 530 
Q 2431 669 2431 922 
Q 2431 1156 2273 1281 
Q 2116 1406 1581 1522 
L 1381 1569 
Q 847 1681 609 1914 
Q 372 2147 372 2553 
Q 372 3047 722 3315 
Q 1072 3584 1716 3584 
Q 2034 3584 2315 3537 
Q 2597 3491 2834 3397 
z
" transform="scale(0.015625)"/>
       <path id="DejaVuSans-70" d="M 1159 525 
L 1159 -1331 
L 581 -1331 
L 581 3500 
L 1159 3500 
L 1159 2969 
Q 1341 3281 1617 3432 
Q 1894 3584 2278 3584 
Q 2916 3584 3314 3078 
Q 3713 2572 3713 1747 
Q 3713 922 3314 415 
Q 2916 -91 2278 -91 
Q 1894 -91 1617 61 
Q 1341 213 1159 525 
z
M 3116 1747 
Q 3116 2381 2855 2742 
Q 2594 3103 2138 3103 
Q 1681 3103 1420 2742 
Q 1159 2381 1159 1747 
Q 1159 1113 1420 752 
Q 1681 391 2138 391 
Q 2594 391 2855 752 
Q 3116 1113 3116 1747 
z
" transform="scale(0.015625)"/>
      </defs>
      <use xlink:href="#DejaVuSans-65"/>
      <use xlink:href="#DejaVuSans-6e" transform="translate(61.523438 0)"/>
      <use xlink:href="#DejaVuSans-76" transform="translate(124.902344 0)"/>
      <use xlink:href="#DejaVuSans-69" transform="translate(184.082031 0)"/>
      <use xlink:href="#DejaVuSans-72" transform="translate(211.865234 0)"/>
      <use xlink:href="#DejaVuSans-6f" transform="translate(250.728516 0)"/>
      <use xlink:href="#DejaVuSans-6e" transform="translate(311.910156 0)"/>
      <use xlink:href="#DejaVuSans-6d" transform="translate(375.289062 0)"/>
      <use xlink:href="#DejaVuSans-65" transform="translate(472.701172 0)"/>
      <use xlink:href="#DejaVuSans-6e" transform="translate(534.224609 0)"/>
      <use xlink:href="#DejaVuSans-74" transform="translate(597.603516 0)"/>
      <use xlink:href="#DejaVuSans-20" transform="translate(636.8125 0)"/>
      <use xlink:href="#DejaVuSans-73" transform="translate(668.599609 0)"/>
      <use xlink:href="#DejaVuSans-74" transform="translate(720.699219 0)"/>
      <use xlink:href="#DejaVuSans-65" transform="translate(759.908203 0)"/>
      <use xlink:href="#DejaVuSans-70" transform="translate(821.431641 0)"/>
      <use xlink:href="#DejaVuSans-73" transform="translate(884.908203 0)"/>
     </g>
    </g>
   </g>
   <g id="matplotlib.axis_2">
    <g id="ytick_1">
     <g id="line2d_19">
      <path d="M 57.01 406.385818 
L 637.519426 406.385818 
" clip-path="url(#p2273c551b6)" style="fill: none; stroke: #eadcc4; stroke-width: 0.9; stroke-linecap: square"/>
     </g>
     <g id="line2d_20">
      <defs>
       <path id="m01e78f3be4" d="M 0 0 
L -3.5 0 
" style="stroke: #000000; stroke-width: 0.8"/>
      </defs>
      <g>
       <use xlink:href="#m01e78f3be4" x="57.01" y="406.385818" style="stroke: #000000; stroke-width: 0.8"/>
      </g>
     </g>
     <g id="text_11">
      <!-- 1.2 -->
      <g transform="translate(34.106875 410.185037) scale(0.1 -0.1)">
       <defs>
        <path id="DejaVuSans-2e" d="M 684 794 
L 1344 794 
L 1344 0 
L 684 0 
L 684 794 
z
" transform="scale(0.015625)"/>
       </defs>
       <use xlink:href="#DejaVuSans-31"/>
       <use xlink:href="#DejaVuSans-2e" transform="translate(63.623047 0)"/>
       <use xlink:href="#DejaVuSans-32" transform="translate(95.410156 0)"/>
      </g>
     </g>
    </g>
    <g id="ytick_2">
     <g id="line2d_21">
      <path d="M 57.01 354.318909 
L 637.519426 354.318909 
" clip-path="url(#p2273c551b6)" style="fill: none; stroke: #eadcc4; stroke-width: 0.9; stroke-linecap: square"/>
     </g>
     <g id="line2d_22">
      <g>
       <use xlink:href="#m01e78f3be4" x="57.01" y="354.318909" style="stroke: #000000; stroke-width: 0.8"/>
      </g>
     </g>
     <g id="text_12">
      <!-- 1.4 -->
      <g transform="translate(34.106875 358.118128) scale(0.1 -0.1)">
       <use xlink:href="#DejaVuSans-31"/>
       <use xlink:href="#DejaVuSans-2e" transform="translate(63.623047 0)"/>
       <use xlink:href="#DejaVuSans-34" transform="translate(95.410156 0)"/>
      </g>
     </g>
    </g>
    <g id="ytick_3">
     <g id="line2d_23">
      <path d="M 57.01 302.252 
L 637.519426 302.252 
" clip-path="url(#p2273c551b6)" style="fill: none; stroke: #eadcc4; stroke-width: 0.9; stroke-linecap: square"/>
     </g>
     <g id="line2d_24">
      <g>
       <use xlink:href="#m01e78f3be4" x="57.01" y="302.252" style="stroke: #000000; stroke-width: 0.8"/>
      </g>
     </g>
     <g id="text_13">
      <!-- 1.6 -->
      <g transform="translate(34.106875 306.051219) scale(0.1 -0.1)">
       <use xlink:href="#DejaVuSans-31"/>
       <use xlink:href="#DejaVuSans-2e" transform="translate(63.623047 0)"/>
       <use xlink:href="#DejaVuSans-36" transform="translate(95.410156 0)"/>
      </g>
     </g>
    </g>
    <g id="ytick_4">
     <g id="line2d_25">
      <path d="M 57.01 250.185091 
L 637.519426 250.185091 
" clip-path="url(#p2273c551b6)" style="fill: none; stroke: #eadcc4; stroke-width: 0.9; stroke-linecap: square"/>
     </g>
     <g id="line2d_26">
      <g>
       <use xlink:href="#m01e78f3be4" x="57.01" y="250.185091" style="stroke: #000000; stroke-width: 0.8"/>
      </g>
     </g>
     <g id="text_14">
      <!-- 1.8 -->
      <g transform="translate(34.106875 253.98431) scale(0.1 -0.1)">
       <use xlink:href="#DejaVuSans-31"/>
       <use xlink:href="#DejaVuSans-2e" transform="translate(63.623047 0)"/>
       <use xlink:href="#DejaVuSans-38" transform="translate(95.410156 0)"/>
      </g>
     </g>
    </g>
    <g id="ytick_5">
     <g id="line2d_27">
      <path d="M 57.01 198.118182 
L 637.519426 198.118182 
" clip-path="url(#p2273c551b6)" style="fill: none; stroke: #eadcc4; stroke-width: 0.9; stroke-linecap: square"/>
     </g>
     <g id="line2d_28">
      <g>
       <use xlink:href="#m01e78f3be4" x="57.01" y="198.118182" style="stroke: #000000; stroke-width: 0.8"/>
      </g>
     </g>
     <g id="text_15">
      <!-- 2.0 -->
      <g transform="translate(34.106875 201.917401) scale(0.1 -0.1)">
       <use xlink:href="#DejaVuSans-32"/>
       <use xlink:href="#DejaVuSans-2e" transform="translate(63.623047 0)"/>
       <use xlink:href="#DejaVuSans-30" transform="translate(95.410156 0)"/>
      </g>
     </g>
    </g>
    <g id="ytick_6">
     <g id="line2d_29">
      <path d="M 57.01 146.051273 
L 637.519426 146.051273 
" clip-path="url(#p2273c551b6)" style="fill: none; stroke: #eadcc4; stroke-width: 0.9; stroke-linecap: square"/>
     </g>
     <g id="line2d_30">
      <g>
       <use xlink:href="#m01e78f3be4" x="57.01" y="146.051273" style="stroke: #000000; stroke-width: 0.8"/>
      </g>
     </g>
     <g id="text_16">
      <!-- 2.2 -->
      <g transform="translate(34.106875 149.850491) scale(0.1 -0.1)">
       <use xlink:href="#DejaVuSans-32"/>
       <use xlink:href="#DejaVuSans-2e" transform="translate(63.623047 0)"/>
       <use xlink:href="#DejaVuSans-32" transform="translate(95.410156 0)"/>
      </g>
     </g>
    </g>
    <g id="ytick_7">
     <g id="line2d_31">
      <path d="M 57.01 93.984364 
L 637.519426 93.984364 
" clip-path="url(#p2273c551b6)" style="fill: none; stroke: #eadcc4; stroke-width: 0.9; stroke-linecap: square"/>
     </g>
     <g id="line2d_32">
      <g>
       <use xlink:href="#m01e78f3be4" x="57.01" y="93.984364" style="stroke: #000000; stroke-width: 0.8"/>
      </g>
     </g>
     <g id="text_17">
      <!-- 2.4 -->
      <g transform="translate(34.106875 97.783582) scale(0.1 -0.1)">
       <use xlink:href="#DejaVuSans-32"/>
       <use xlink:href="#DejaVuSans-2e" transform="translate(63.623047 0)"/>
       <use xlink:href="#DejaVuSans-34" transform="translate(95.410156 0)"/>
      </g>
     </g>
    </g>
    <g id="text_18">
     <!-- running reward -->
     <g transform="translate(28.027188 268.857656) rotate(-90) scale(0.1 -0.1)">
      <defs>
       <path id="DejaVuSans-75" d="M 544 1381 
L 544 3500 
L 1119 3500 
L 1119 1403 
Q 1119 906 1312 657 
Q 1506 409 1894 409 
Q 2359 409 2629 706 
Q 2900 1003 2900 1516 
L 2900 3500 
L 3475 3500 
L 3475 0 
L 2900 0 
L 2900 538 
Q 2691 219 2414 64 
Q 2138 -91 1772 -91 
Q 1169 -91 856 284 
Q 544 659 544 1381 
z
M 1991 3584 
L 1991 3584 
z
" transform="scale(0.015625)"/>
       <path id="DejaVuSans-67" d="M 2906 1791 
Q 2906 2416 2648 2759 
Q 2391 3103 1925 3103 
Q 1463 3103 1205 2759 
Q 947 2416 947 1791 
Q 947 1169 1205 825 
Q 1463 481 1925 481 
Q 2391 481 2648 825 
Q 2906 1169 2906 1791 
z
M 3481 434 
Q 3481 -459 3084 -895 
Q 2688 -1331 1869 -1331 
Q 1566 -1331 1297 -1286 
Q 1028 -1241 775 -1147 
L 775 -588 
Q 1028 -725 1275 -790 
Q 1522 -856 1778 -856 
Q 2344 -856 2625 -561 
Q 2906 -266 2906 331 
L 2906 616 
Q 2728 306 2450 153 
Q 2172 0 1784 0 
Q 1141 0 747 490 
Q 353 981 353 1791 
Q 353 2603 747 3093 
Q 1141 3584 1784 3584 
Q 2172 3584 2450 3431 
Q 2728 3278 2906 2969 
L 2906 3500 
L 3481 3500 
L 3481 434 
z
" transform="scale(0.015625)"/>
       <path id="DejaVuSans-77" d="M 269 3500 
L 844 3500 
L 1563 769 
L 2278 3500 
L 2956 3500 
L 3675 769 
L 4391 3500 
L 4966 3500 
L 4050 0 
L 3372 0 
L 2619 2869 
L 1863 0 
L 1184 0 
L 269 3500 
z
" transform="scale(0.015625)"/>
       <path id="DejaVuSans-61" d="M 2194 1759 
Q 1497 1759 1228 1600 
Q 959 1441 959 1056 
Q 959 750 1161 570 
Q 1363 391 1709 391 
Q 2188 391 2477 730 
Q 2766 1069 2766 1631 
L 2766 1759 
L 2194 1759 
z
M 3341 1997 
L 3341 0 
L 2766 0 
L 2766 531 
Q 2569 213 2275 61 
Q 1981 -91 1556 -91 
Q 1019 -91 701 211 
Q 384 513 384 1019 
Q 384 1609 779 1909 
Q 1175 2209 1959 2209 
L 2766 2209 
L 2766 2266 
Q 2766 2663 2505 2880 
Q 2244 3097 1772 3097 
Q 1472 3097 1187 3025 
Q 903 2953 641 2809 
L 641 3341 
Q 956 3463 1253 3523 
Q 1550 3584 1831 3584 
Q 2591 3584 2966 3190 
Q 3341 2797 3341 1997 
z
" transform="scale(0.015625)"/>
       <path id="DejaVuSans-64" d="M 2906 2969 
L 2906 4863 
L 3481 4863 
L 3481 0 
L 2906 0 
L 2906 525 
Q 2725 213 2448 61 
Q 2172 -91 1784 -91 
Q 1150 -91 751 415 
Q 353 922 353 1747 
Q 353 2572 751 3078 
Q 1150 3584 1784 3584 
Q 2172 3584 2448 3432 
Q 2725 3281 2906 2969 
z
M 947 1747 
Q 947 1113 1208 752 
Q 1469 391 1925 391 
Q 2381 391 2643 752 
Q 2906 1113 2906 1747 
Q 2906 2381 2643 2742 
Q 2381 3103 1925 3103 
Q 1469 3103 1208 2742 
Q 947 2381 947 1747 
z
" transform="scale(0.015625)"/>
      </defs>
      <use xlink:href="#DejaVuSans-72"/>
      <use xlink:href="#DejaVuSans-75" transform="translate(41.113281 0)"/>
      <use xlink:href="#DejaVuSans-6e" transform="translate(104.492188 0)"/>
      <use xlink:href="#DejaVuSans-6e" transform="translate(167.871094 0)"/>
      <use xlink:href="#DejaVuSans-69" transform="translate(231.25 0)"/>
      <use xlink:href="#DejaVuSans-6e" transform="translate(259.033203 0)"/>
      <use xlink:href="#DejaVuSans-67" transform="translate(322.412109 0)"/>
      <use xlink:href="#DejaVuSans-20" transform="translate(385.888672 0)"/>
      <use xlink:href="#DejaVuSans-72" transform="translate(417.675781 0)"/>
      <use xlink:href="#DejaVuSans-65" transform="translate(456.539062 0)"/>
      <use xlink:href="#DejaVuSans-77" transform="translate(518.0625 0)"/>
      <use xlink:href="#DejaVuSans-61" transform="translate(599.849609 0)"/>
      <use xlink:href="#DejaVuSans-72" transform="translate(661.128906 0)"/>
      <use xlink:href="#DejaVuSans-64" transform="translate(700.492188 0)"/>
     </g>
    </g>
   </g>
   <g id="line2d_33">
    <path d="M 131.902883 198.118182 
L 223.279366 67.950909 
L 276.6719 284.896364 
L 327.914399 393.369091 
L 413.557456 354.318909 
L 482.716912 371.674545 
L 541.126194 384.071429 
" clip-path="url(#p2273c551b6)" style="fill: none; stroke: #b94f45; stroke-width: 2.8; stroke-linecap: square"/>
    <defs>
     <path id="md72ec5c277" d="M 0 3 
C 0.795609 3 1.55874 2.683901 2.12132 2.12132 
C 2.683901 1.55874 3 0.795609 3 0 
C 3 -0.795609 2.683901 -1.55874 2.12132 -2.12132 
C 1.55874 -2.683901 0.795609 -3 0 -3 
C -0.795609 -3 -1.55874 -2.683901 -2.12132 -2.12132 
C -2.683901 -1.55874 -3 -0.795609 -3 0 
C -3 0.795609 -2.683901 1.55874 -2.12132 2.12132 
C -1.55874 2.683901 -0.795609 3 0 3 
z
" style="stroke: #b94f45"/>
    </defs>
    <g clip-path="url(#p2273c551b6)">
     <use xlink:href="#md72ec5c277" x="131.902883" y="198.118182" style="fill: #b94f45; stroke: #b94f45"/>
     <use xlink:href="#md72ec5c277" x="223.279366" y="67.950909" style="fill: #b94f45; stroke: #b94f45"/>
     <use xlink:href="#md72ec5c277" x="276.6719" y="284.896364" style="fill: #b94f45; stroke: #b94f45"/>
     <use xlink:href="#md72ec5c277" x="327.914399" y="393.369091" style="fill: #b94f45; stroke: #b94f45"/>
     <use xlink:href="#md72ec5c277" x="413.557456" y="354.318909" style="fill: #b94f45; stroke: #b94f45"/>
     <use xlink:href="#md72ec5c277" x="482.716912" y="371.674545" style="fill: #b94f45; stroke: #b94f45"/>
     <use xlink:href="#md72ec5c277" x="541.126194" y="384.071429" style="fill: #b94f45; stroke: #b94f45"/>
    </g>
   </g>
   <g id="line2d_34">
    <path d="M 131.902883 198.118182 
L 223.279366 67.950909 
L 281.688648 198.118182 
L 327.914399 328.285455 
L 421.799256 250.185091 
L 479.133521 328.285455 
L 551.15969 309.69013 
L 594.518728 328.285455 
" clip-path="url(#p2273c551b6)" style="fill: none; stroke: #226f68; stroke-width: 2.8; stroke-linecap: square"/>
    <defs>
     <path id="me51a5896a2" d="M 0 3 
C 0.795609 3 1.55874 2.683901 2.12132 2.12132 
C 2.683901 1.55874 3 0.795609 3 0 
C 3 -0.795609 2.683901 -1.55874 2.12132 -2.12132 
C 1.55874 -2.683901 0.795609 -3 0 -3 
C -0.795609 -3 -1.55874 -2.683901 -2.12132 -2.12132 
C -2.683901 -1.55874 -3 -0.795609 -3 0 
C -3 0.795609 -2.683901 1.55874 -2.12132 2.12132 
C -1.55874 2.683901 -0.795609 3 0 3 
z
" style="stroke: #226f68"/>
    </defs>
    <g clip-path="url(#p2273c551b6)">
     <use xlink:href="#me51a5896a2" x="131.902883" y="198.118182" style="fill: #226f68; stroke: #226f68"/>
     <use xlink:href="#me51a5896a2" x="223.279366" y="67.950909" style="fill: #226f68; stroke: #226f68"/>
     <use xlink:href="#me51a5896a2" x="281.688648" y="198.118182" style="fill: #226f68; stroke: #226f68"/>
     <use xlink:href="#me51a5896a2" x="327.914399" y="328.285455" style="fill: #226f68; stroke: #226f68"/>
     <use xlink:href="#me51a5896a2" x="421.799256" y="250.185091" style="fill: #226f68; stroke: #226f68"/>
     <use xlink:href="#me51a5896a2" x="479.133521" y="328.285455" style="fill: #226f68; stroke: #226f68"/>
     <use xlink:href="#me51a5896a2" x="551.15969" y="309.69013" style="fill: #226f68; stroke: #226f68"/>
     <use xlink:href="#me51a5896a2" x="594.518728" y="328.285455" style="fill: #226f68; stroke: #226f68"/>
    </g>
   </g>
   <g id="patch_3">
    <path d="M 57.01 409.64 
L 57.01 51.68 
" style="fill: none; stroke: #d7c7aa; stroke-width: 0.8; stroke-linejoin: miter; stroke-linecap: square"/>
   </g>
   <g id="patch_4">
    <path d="M 637.519426 409.64 
L 637.519426 51.68 
" style="fill: none; stroke: #d7c7aa; stroke-width: 0.8; stroke-linejoin: miter; stroke-linecap: square"/>
   </g>
   <g id="patch_5">
    <path d="M 57.01 409.64 
L 637.519426 409.64 
" style="fill: none; stroke: #d7c7aa; stroke-width: 0.8; stroke-linejoin: miter; stroke-linecap: square"/>
   </g>
   <g id="patch_6">
    <path d="M 57.01 51.68 
L 637.519426 51.68 
" style="fill: none; stroke: #d7c7aa; stroke-width: 0.8; stroke-linejoin: miter; stroke-linecap: square"/>
   </g>
   <g id="text_19">
    <!-- 2 -->
    <g style="fill: #b94f45" transform="translate(129.119758 190.118182) scale(0.08 -0.08)">
     <defs>
      <path id="DejaVuSans-Bold-32" d="M 1844 884 
L 3897 884 
L 3897 0 
L 506 0 
L 506 884 
L 2209 2388 
Q 2438 2594 2547 2791 
Q 2656 2988 2656 3200 
Q 2656 3528 2436 3728 
Q 2216 3928 1850 3928 
Q 1569 3928 1234 3808 
Q 900 3688 519 3450 
L 519 4475 
Q 925 4609 1322 4679 
Q 1719 4750 2100 4750 
Q 2938 4750 3402 4381 
Q 3866 4013 3866 3353 
Q 3866 2972 3669 2642 
Q 3472 2313 2841 1759 
L 1844 884 
z
" transform="scale(0.015625)"/>
     </defs>
     <use xlink:href="#DejaVuSans-Bold-32"/>
    </g>
   </g>
   <g id="text_20">
    <!-- 3 -->
    <g style="fill: #b94f45" transform="translate(220.496241 59.950909) scale(0.08 -0.08)">
     <defs>
      <path id="DejaVuSans-Bold-33" d="M 2981 2516 
Q 3453 2394 3698 2092 
Q 3944 1791 3944 1325 
Q 3944 631 3412 270 
Q 2881 -91 1863 -91 
Q 1503 -91 1142 -33 
Q 781 25 428 141 
L 428 1069 
Q 766 900 1098 814 
Q 1431 728 1753 728 
Q 2231 728 2486 893 
Q 2741 1059 2741 1369 
Q 2741 1688 2480 1852 
Q 2219 2016 1709 2016 
L 1228 2016 
L 1228 2791 
L 1734 2791 
Q 2188 2791 2409 2933 
Q 2631 3075 2631 3366 
Q 2631 3634 2415 3781 
Q 2200 3928 1806 3928 
Q 1516 3928 1219 3862 
Q 922 3797 628 3669 
L 628 4550 
Q 984 4650 1334 4700 
Q 1684 4750 2022 4750 
Q 2931 4750 3382 4451 
Q 3834 4153 3834 3553 
Q 3834 3144 3618 2883 
Q 3403 2622 2981 2516 
z
" transform="scale(0.015625)"/>
     </defs>
     <use xlink:href="#DejaVuSans-Bold-33"/>
    </g>
   </g>
   <g id="text_21">
    <!-- 0 -->
    <g style="fill: #b94f45" transform="translate(273.888775 276.896364) scale(0.08 -0.08)">
     <defs>
      <path id="DejaVuSans-Bold-30" d="M 2944 2338 
Q 2944 3213 2780 3570 
Q 2616 3928 2228 3928 
Q 1841 3928 1675 3570 
Q 1509 3213 1509 2338 
Q 1509 1453 1675 1090 
Q 1841 728 2228 728 
Q 2613 728 2778 1090 
Q 2944 1453 2944 2338 
z
M 4147 2328 
Q 4147 1169 3647 539 
Q 3147 -91 2228 -91 
Q 1306 -91 806 539 
Q 306 1169 306 2328 
Q 306 3491 806 4120 
Q 1306 4750 2228 4750 
Q 3147 4750 3647 4120 
Q 4147 3491 4147 2328 
z
" transform="scale(0.015625)"/>
     </defs>
     <use xlink:href="#DejaVuSans-Bold-30"/>
    </g>
   </g>
   <g id="text_22">
    <!-- 0 -->
    <g style="fill: #b94f45" transform="translate(325.131274 385.369091) scale(0.08 -0.08)">
     <use xlink:href="#DejaVuSans-Bold-30"/>
    </g>
   </g>
   <g id="text_23">
    <!-- 2 -->
    <g style="fill: #b94f45" transform="translate(410.774331 346.318909) scale(0.08 -0.08)">
     <use xlink:href="#DejaVuSans-Bold-32"/>
    </g>
   </g>
   <g id="text_24">
    <!-- 1 -->
    <g style="fill: #b94f45" transform="translate(479.933787 363.674545) scale(0.08 -0.08)">
     <defs>
      <path id="DejaVuSans-Bold-31" d="M 750 831 
L 1813 831 
L 1813 3847 
L 722 3622 
L 722 4441 
L 1806 4666 
L 2950 4666 
L 2950 831 
L 4013 831 
L 4013 0 
L 750 0 
L 750 831 
z
" transform="scale(0.015625)"/>
     </defs>
     <use xlink:href="#DejaVuSans-Bold-31"/>
    </g>
   </g>
   <g id="text_25">
    <!-- 1 -->
    <g style="fill: #b94f45" transform="translate(538.343069 376.071429) scale(0.08 -0.08)">
     <use xlink:href="#DejaVuSans-Bold-31"/>
    </g>
   </g>
   <g id="text_26">
    <!-- final 1.29 -->
    <g style="fill: #b94f45" transform="translate(477.899632 400.071429) scale(0.1 -0.1)">
     <defs>
      <path id="DejaVuSans-Bold-66" d="M 2841 4863 
L 2841 4128 
L 2222 4128 
Q 1984 4128 1890 4042 
Q 1797 3956 1797 3744 
L 1797 3500 
L 2753 3500 
L 2753 2700 
L 1797 2700 
L 1797 0 
L 678 0 
L 678 2700 
L 122 2700 
L 122 3500 
L 678 3500 
L 678 3744 
Q 678 4316 997 4589 
Q 1316 4863 1984 4863 
L 2841 4863 
z
" transform="scale(0.015625)"/>
      <path id="DejaVuSans-Bold-69" d="M 538 3500 
L 1656 3500 
L 1656 0 
L 538 0 
L 538 3500 
z
M 538 4863 
L 1656 4863 
L 1656 3950 
L 538 3950 
L 538 4863 
z
" transform="scale(0.015625)"/>
      <path id="DejaVuSans-Bold-6e" d="M 4056 2131 
L 4056 0 
L 2931 0 
L 2931 347 
L 2931 1631 
Q 2931 2084 2911 2256 
Q 2891 2428 2841 2509 
Q 2775 2619 2662 2680 
Q 2550 2741 2406 2741 
Q 2056 2741 1856 2470 
Q 1656 2200 1656 1722 
L 1656 0 
L 538 0 
L 538 3500 
L 1656 3500 
L 1656 2988 
Q 1909 3294 2193 3439 
Q 2478 3584 2822 3584 
Q 3428 3584 3742 3212 
Q 4056 2841 4056 2131 
z
" transform="scale(0.015625)"/>
      <path id="DejaVuSans-Bold-61" d="M 2106 1575 
Q 1756 1575 1579 1456 
Q 1403 1338 1403 1106 
Q 1403 894 1545 773 
Q 1688 653 1941 653 
Q 2256 653 2472 879 
Q 2688 1106 2688 1447 
L 2688 1575 
L 2106 1575 
z
M 3816 1997 
L 3816 0 
L 2688 0 
L 2688 519 
Q 2463 200 2181 54 
Q 1900 -91 1497 -91 
Q 953 -91 614 226 
Q 275 544 275 1050 
Q 275 1666 698 1953 
Q 1122 2241 2028 2241 
L 2688 2241 
L 2688 2328 
Q 2688 2594 2478 2717 
Q 2269 2841 1825 2841 
Q 1466 2841 1156 2769 
Q 847 2697 581 2553 
L 581 3406 
Q 941 3494 1303 3539 
Q 1666 3584 2028 3584 
Q 2975 3584 3395 3211 
Q 3816 2838 3816 1997 
z
" transform="scale(0.015625)"/>
      <path id="DejaVuSans-Bold-6c" d="M 538 4863 
L 1656 4863 
L 1656 0 
L 538 0 
L 538 4863 
z
" transform="scale(0.015625)"/>
      <path id="DejaVuSans-Bold-20" transform="scale(0.015625)"/>
      <path id="DejaVuSans-Bold-2e" d="M 653 1209 
L 1778 1209 
L 1778 0 
L 653 0 
L 653 1209 
z
" transform="scale(0.015625)"/>
      <path id="DejaVuSans-Bold-39" d="M 641 103 
L 641 966 
Q 928 831 1190 764 
Q 1453 697 1709 697 
Q 2247 697 2547 995 
Q 2847 1294 2900 1881 
Q 2688 1725 2447 1647 
Q 2206 1569 1925 1569 
Q 1209 1569 770 1986 
Q 331 2403 331 3084 
Q 331 3838 820 4291 
Q 1309 4744 2131 4744 
Q 3044 4744 3544 4128 
Q 4044 3513 4044 2388 
Q 4044 1231 3459 570 
Q 2875 -91 1856 -91 
Q 1528 -91 1228 -42 
Q 928 6 641 103 
z
M 2125 2350 
Q 2441 2350 2600 2554 
Q 2759 2759 2759 3169 
Q 2759 3575 2600 3781 
Q 2441 3988 2125 3988 
Q 1809 3988 1650 3781 
Q 1491 3575 1491 3169 
Q 1491 2759 1650 2554 
Q 1809 2350 2125 2350 
z
" transform="scale(0.015625)"/>
     </defs>
     <use xlink:href="#DejaVuSans-Bold-66"/>
     <use xlink:href="#DejaVuSans-Bold-69" transform="translate(43.505859 0)"/>
     <use xlink:href="#DejaVuSans-Bold-6e" transform="translate(77.783203 0)"/>
     <use xlink:href="#DejaVuSans-Bold-61" transform="translate(148.974609 0)"/>
     <use xlink:href="#DejaVuSans-Bold-6c" transform="translate(216.455078 0)"/>
     <use xlink:href="#DejaVuSans-Bold-20" transform="translate(250.732422 0)"/>
     <use xlink:href="#DejaVuSans-Bold-31" transform="translate(285.546875 0)"/>
     <use xlink:href="#DejaVuSans-Bold-2e" transform="translate(355.126953 0)"/>
     <use xlink:href="#DejaVuSans-Bold-32" transform="translate(393.115234 0)"/>
     <use xlink:href="#DejaVuSans-Bold-39" transform="translate(462.695312 0)"/>
    </g>
   </g>
   <g id="text_27">
    <!-- 2 -->
    <g style="fill: #226f68" transform="translate(129.119758 190.118182) scale(0.08 -0.08)">
     <use xlink:href="#DejaVuSans-Bold-32"/>
    </g>
   </g>
   <g id="text_28">
    <!-- 3 -->
    <g style="fill: #226f68" transform="translate(220.496241 59.950909) scale(0.08 -0.08)">
     <use xlink:href="#DejaVuSans-Bold-33"/>
    </g>
   </g>
   <g id="text_29">
    <!-- 1 -->
    <g style="fill: #226f68" transform="translate(278.905523 190.118182) scale(0.08 -0.08)">
     <use xlink:href="#DejaVuSans-Bold-31"/>
    </g>
   </g>
   <g id="text_30">
    <!-- 0 -->
    <g style="fill: #226f68" transform="translate(325.131274 320.285455) scale(0.08 -0.08)">
     <use xlink:href="#DejaVuSans-Bold-30"/>
    </g>
   </g>
   <g id="text_31">
    <!-- 3 -->
    <g style="fill: #226f68" transform="translate(419.016131 242.185091) scale(0.08 -0.08)">
     <use xlink:href="#DejaVuSans-Bold-33"/>
    </g>
   </g>
   <g id="text_32">
    <!-- 0 -->
    <g style="fill: #226f68" transform="translate(476.350396 320.285455) scale(0.08 -0.08)">
     <use xlink:href="#DejaVuSans-Bold-30"/>
    </g>
   </g>
   <g id="text_33">
    <!-- 2 -->
    <g style="fill: #226f68" transform="translate(548.376565 301.69013) scale(0.08 -0.08)">
     <use xlink:href="#DejaVuSans-Bold-32"/>
    </g>
   </g>
   <g id="text_34">
    <!-- 1 -->
    <g style="fill: #226f68" transform="translate(591.735603 320.285455) scale(0.08 -0.08)">
     <use xlink:href="#DejaVuSans-Bold-31"/>
    </g>
   </g>
   <g id="text_35">
    <!-- final 1.50 -->
    <g style="fill: #226f68" transform="translate(604.518728 344.285455) scale(0.1 -0.1)">
     <defs>
      <path id="DejaVuSans-Bold-35" d="M 678 4666 
L 3669 4666 
L 3669 3781 
L 1638 3781 
L 1638 3059 
Q 1775 3097 1914 3117 
Q 2053 3138 2203 3138 
Q 3056 3138 3531 2711 
Q 4006 2284 4006 1522 
Q 4006 766 3489 337 
Q 2972 -91 2053 -91 
Q 1656 -91 1267 -14 
Q 878 63 494 219 
L 494 1166 
Q 875 947 1217 837 
Q 1559 728 1863 728 
Q 2300 728 2551 942 
Q 2803 1156 2803 1522 
Q 2803 1891 2551 2103 
Q 2300 2316 1863 2316 
Q 1603 2316 1309 2248 
Q 1016 2181 678 2041 
L 678 4666 
z
" transform="scale(0.015625)"/>
     </defs>
     <use xlink:href="#DejaVuSans-Bold-66"/>
     <use xlink:href="#DejaVuSans-Bold-69" transform="translate(43.505859 0)"/>
     <use xlink:href="#DejaVuSans-Bold-6e" transform="translate(77.783203 0)"/>
     <use xlink:href="#DejaVuSans-Bold-61" transform="translate(148.974609 0)"/>
     <use xlink:href="#DejaVuSans-Bold-6c" transform="translate(216.455078 0)"/>
     <use xlink:href="#DejaVuSans-Bold-20" transform="translate(250.732422 0)"/>
     <use xlink:href="#DejaVuSans-Bold-31" transform="translate(285.546875 0)"/>
     <use xlink:href="#DejaVuSans-Bold-2e" transform="translate(355.126953 0)"/>
     <use xlink:href="#DejaVuSans-Bold-35" transform="translate(393.115234 0)"/>
     <use xlink:href="#DejaVuSans-Bold-30" transform="translate(462.695312 0)"/>
    </g>
   </g>
   <g id="text_36">
    <!-- Actual run, 1500 environment steps per model, same preprocessing/seed/replay/target mechanics -->
    <g style="fill: #6c6a62" transform="translate(112.81733 42.545097) scale(0.095 -0.095)">
     <defs>
      <path id="DejaVuSans-41" d="M 2188 4044 
L 1331 1722 
L 3047 1722 
L 2188 4044 
z
M 1831 4666 
L 2547 4666 
L 4325 0 
L 3669 0 
L 3244 1197 
L 1141 1197 
L 716 0 
L 50 0 
L 1831 4666 
z
" transform="scale(0.015625)"/>
      <path id="DejaVuSans-63" d="M 3122 3366 
L 3122 2828 
Q 2878 2963 2633 3030 
Q 2388 3097 2138 3097 
Q 1578 3097 1268 2742 
Q 959 2388 959 1747 
Q 959 1106 1268 751 
Q 1578 397 2138 397 
Q 2388 397 2633 464 
Q 2878 531 3122 666 
L 3122 134 
Q 2881 22 2623 -34 
Q 2366 -91 2075 -91 
Q 1284 -91 818 406 
Q 353 903 353 1747 
Q 353 2603 823 3093 
Q 1294 3584 2113 3584 
Q 2378 3584 2631 3529 
Q 2884 3475 3122 3366 
z
" transform="scale(0.015625)"/>
      <path id="DejaVuSans-6c" d="M 603 4863 
L 1178 4863 
L 1178 0 
L 603 0 
L 603 4863 
z
" transform="scale(0.015625)"/>
      <path id="DejaVuSans-2c" d="M 750 794 
L 1409 794 
L 1409 256 
L 897 -744 
L 494 -744 
L 750 256 
L 750 794 
z
" transform="scale(0.015625)"/>
      <path id="DejaVuSans-35" d="M 691 4666 
L 3169 4666 
L 3169 4134 
L 1269 4134 
L 1269 2991 
Q 1406 3038 1543 3061 
Q 1681 3084 1819 3084 
Q 2600 3084 3056 2656 
Q 3513 2228 3513 1497 
Q 3513 744 3044 326 
Q 2575 -91 1722 -91 
Q 1428 -91 1123 -41 
Q 819 9 494 109 
L 494 744 
Q 775 591 1075 516 
Q 1375 441 1709 441 
Q 2250 441 2565 725 
Q 2881 1009 2881 1497 
Q 2881 1984 2565 2268 
Q 2250 2553 1709 2553 
Q 1456 2553 1204 2497 
Q 953 2441 691 2322 
L 691 4666 
z
" transform="scale(0.015625)"/>
      <path id="DejaVuSans-2f" d="M 1625 4666 
L 2156 4666 
L 531 -594 
L 0 -594 
L 1625 4666 
z
" transform="scale(0.015625)"/>
      <path id="DejaVuSans-79" d="M 2059 -325 
Q 1816 -950 1584 -1140 
Q 1353 -1331 966 -1331 
L 506 -1331 
L 506 -850 
L 844 -850 
Q 1081 -850 1212 -737 
Q 1344 -625 1503 -206 
L 1606 56 
L 191 3500 
L 800 3500 
L 1894 763 
L 2988 3500 
L 3597 3500 
L 2059 -325 
z
" transform="scale(0.015625)"/>
      <path id="DejaVuSans-68" d="M 3513 2113 
L 3513 0 
L 2938 0 
L 2938 2094 
Q 2938 2591 2744 2837 
Q 2550 3084 2163 3084 
Q 1697 3084 1428 2787 
Q 1159 2491 1159 1978 
L 1159 0 
L 581 0 
L 581 4863 
L 1159 4863 
L 1159 2956 
Q 1366 3272 1645 3428 
Q 1925 3584 2291 3584 
Q 2894 3584 3203 3211 
Q 3513 2838 3513 2113 
z
" transform="scale(0.015625)"/>
     </defs>
     <use xlink:href="#DejaVuSans-41"/>
     <use xlink:href="#DejaVuSans-63" transform="translate(66.658203 0)"/>
     <use xlink:href="#DejaVuSans-74" transform="translate(121.638672 0)"/>
     <use xlink:href="#DejaVuSans-75" transform="translate(160.847656 0)"/>
     <use xlink:href="#DejaVuSans-61" transform="translate(224.226562 0)"/>
     <use xlink:href="#DejaVuSans-6c" transform="translate(285.505859 0)"/>
     <use xlink:href="#DejaVuSans-20" transform="translate(313.289062 0)"/>
     <use xlink:href="#DejaVuSans-72" transform="translate(345.076172 0)"/>
     <use xlink:href="#DejaVuSans-75" transform="translate(386.189453 0)"/>
     <use xlink:href="#DejaVuSans-6e" transform="translate(449.568359 0)"/>
     <use xlink:href="#DejaVuSans-2c" transform="translate(512.947266 0)"/>
     <use xlink:href="#DejaVuSans-20" transform="translate(544.734375 0)"/>
     <use xlink:href="#DejaVuSans-31" transform="translate(576.521484 0)"/>
     <use xlink:href="#DejaVuSans-35" transform="translate(640.144531 0)"/>
     <use xlink:href="#DejaVuSans-30" transform="translate(703.767578 0)"/>
     <use xlink:href="#DejaVuSans-30" transform="translate(767.390625 0)"/>
     <use xlink:href="#DejaVuSans-20" transform="translate(831.013672 0)"/>
     <use xlink:href="#DejaVuSans-65" transform="translate(862.800781 0)"/>
     <use xlink:href="#DejaVuSans-6e" transform="translate(924.324219 0)"/>
     <use xlink:href="#DejaVuSans-76" transform="translate(987.703125 0)"/>
     <use xlink:href="#DejaVuSans-69" transform="translate(1046.882812 0)"/>
     <use xlink:href="#DejaVuSans-72" transform="translate(1074.666016 0)"/>
     <use xlink:href="#DejaVuSans-6f" transform="translate(1113.529297 0)"/>
     <use xlink:href="#DejaVuSans-6e" transform="translate(1174.710938 0)"/>
     <use xlink:href="#DejaVuSans-6d" transform="translate(1238.089844 0)"/>
     <use xlink:href="#DejaVuSans-65" transform="translate(1335.501953 0)"/>
     <use xlink:href="#DejaVuSans-6e" transform="translate(1397.025391 0)"/>
     <use xlink:href="#DejaVuSans-74" transform="translate(1460.404297 0)"/>
     <use xlink:href="#DejaVuSans-20" transform="translate(1499.613281 0)"/>
     <use xlink:href="#DejaVuSans-73" transform="translate(1531.400391 0)"/>
     <use xlink:href="#DejaVuSans-74" transform="translate(1583.5 0)"/>
     <use xlink:href="#DejaVuSans-65" transform="translate(1622.708984 0)"/>
     <use xlink:href="#DejaVuSans-70" transform="translate(1684.232422 0)"/>
     <use xlink:href="#DejaVuSans-73" transform="translate(1747.708984 0)"/>
     <use xlink:href="#DejaVuSans-20" transform="translate(1799.808594 0)"/>
     <use xlink:href="#DejaVuSans-70" transform="translate(1831.595703 0)"/>
     <use xlink:href="#DejaVuSans-65" transform="translate(1895.072266 0)"/>
     <use xlink:href="#DejaVuSans-72" transform="translate(1956.595703 0)"/>
     <use xlink:href="#DejaVuSans-20" transform="translate(1997.708984 0)"/>
     <use xlink:href="#DejaVuSans-6d" transform="translate(2029.496094 0)"/>
     <use xlink:href="#DejaVuSans-6f" transform="translate(2126.908203 0)"/>
     <use xlink:href="#DejaVuSans-64" transform="translate(2188.089844 0)"/>
     <use xlink:href="#DejaVuSans-65" transform="translate(2251.566406 0)"/>
     <use xlink:href="#DejaVuSans-6c" transform="translate(2313.089844 0)"/>
     <use xlink:href="#DejaVuSans-2c" transform="translate(2340.873047 0)"/>
     <use xlink:href="#DejaVuSans-20" transform="translate(2372.660156 0)"/>
     <use xlink:href="#DejaVuSans-73" transform="translate(2404.447266 0)"/>
     <use xlink:href="#DejaVuSans-61" transform="translate(2456.546875 0)"/>
     <use xlink:href="#DejaVuSans-6d" transform="translate(2517.826172 0)"/>
     <use xlink:href="#DejaVuSans-65" transform="translate(2615.238281 0)"/>
     <use xlink:href="#DejaVuSans-20" transform="translate(2676.761719 0)"/>
     <use xlink:href="#DejaVuSans-70" transform="translate(2708.548828 0)"/>
     <use xlink:href="#DejaVuSans-72" transform="translate(2772.025391 0)"/>
     <use xlink:href="#DejaVuSans-65" transform="translate(2810.888672 0)"/>
     <use xlink:href="#DejaVuSans-70" transform="translate(2872.412109 0)"/>
     <use xlink:href="#DejaVuSans-72" transform="translate(2935.888672 0)"/>
     <use xlink:href="#DejaVuSans-6f" transform="translate(2974.751953 0)"/>
     <use xlink:href="#DejaVuSans-63" transform="translate(3035.933594 0)"/>
     <use xlink:href="#DejaVuSans-65" transform="translate(3090.914062 0)"/>
     <use xlink:href="#DejaVuSans-73" transform="translate(3152.4375 0)"/>
     <use xlink:href="#DejaVuSans-73" transform="translate(3204.537109 0)"/>
     <use xlink:href="#DejaVuSans-69" transform="translate(3256.636719 0)"/>
     <use xlink:href="#DejaVuSans-6e" transform="translate(3284.419922 0)"/>
     <use xlink:href="#DejaVuSans-67" transform="translate(3347.798828 0)"/>
     <use xlink:href="#DejaVuSans-2f" transform="translate(3411.275391 0)"/>
     <use xlink:href="#DejaVuSans-73" transform="translate(3444.966797 0)"/>
     <use xlink:href="#DejaVuSans-65" transform="translate(3497.066406 0)"/>
     <use xlink:href="#DejaVuSans-65" transform="translate(3558.589844 0)"/>
     <use xlink:href="#DejaVuSans-64" transform="translate(3620.113281 0)"/>
     <use xlink:href="#DejaVuSans-2f" transform="translate(3683.589844 0)"/>
     <use xlink:href="#DejaVuSans-72" transform="translate(3717.28125 0)"/>
     <use xlink:href="#DejaVuSans-65" transform="translate(3756.144531 0)"/>
     <use xlink:href="#DejaVuSans-70" transform="translate(3817.667969 0)"/>
     <use xlink:href="#DejaVuSans-6c" transform="translate(3881.144531 0)"/>
     <use xlink:href="#DejaVuSans-61" transform="translate(3908.927734 0)"/>
     <use xlink:href="#DejaVuSans-79" transform="translate(3970.207031 0)"/>
     <use xlink:href="#DejaVuSans-2f" transform="translate(4029.386719 0)"/>
     <use xlink:href="#DejaVuSans-74" transform="translate(4063.078125 0)"/>
     <use xlink:href="#DejaVuSans-61" transform="translate(4102.287109 0)"/>
     <use xlink:href="#DejaVuSans-72" transform="translate(4163.566406 0)"/>
     <use xlink:href="#DejaVuSans-67" transform="translate(4202.929688 0)"/>
     <use xlink:href="#DejaVuSans-65" transform="translate(4266.40625 0)"/>
     <use xlink:href="#DejaVuSans-74" transform="translate(4327.929688 0)"/>
     <use xlink:href="#DejaVuSans-20" transform="translate(4367.138672 0)"/>
     <use xlink:href="#DejaVuSans-6d" transform="translate(4398.925781 0)"/>
     <use xlink:href="#DejaVuSans-65" transform="translate(4496.337891 0)"/>
     <use xlink:href="#DejaVuSans-63" transform="translate(4557.861328 0)"/>
     <use xlink:href="#DejaVuSans-68" transform="translate(4612.841797 0)"/>
     <use xlink:href="#DejaVuSans-61" transform="translate(4676.220703 0)"/>
     <use xlink:href="#DejaVuSans-6e" transform="translate(4737.5 0)"/>
     <use xlink:href="#DejaVuSans-69" transform="translate(4800.878906 0)"/>
     <use xlink:href="#DejaVuSans-63" transform="translate(4828.662109 0)"/>
     <use xlink:href="#DejaVuSans-73" transform="translate(4883.642578 0)"/>
    </g>
   </g>
   <g id="text_37">
    <!-- Breakout Smoke Run: Original DQN vs Dueling DQN -->
    <g transform="translate(100.679713 33.68) scale(0.17 -0.17)">
     <defs>
      <path id="DejaVuSans-Bold-42" d="M 2456 2859 
Q 2741 2859 2887 2984 
Q 3034 3109 3034 3353 
Q 3034 3594 2887 3720 
Q 2741 3847 2456 3847 
L 1791 3847 
L 1791 2859 
L 2456 2859 
z
M 2497 819 
Q 2859 819 3042 972 
Q 3225 1125 3225 1434 
Q 3225 1738 3044 1889 
Q 2863 2041 2497 2041 
L 1791 2041 
L 1791 819 
L 2497 819 
z
M 3616 2497 
Q 4003 2384 4215 2081 
Q 4428 1778 4428 1338 
Q 4428 663 3972 331 
Q 3516 0 2584 0 
L 588 0 
L 588 4666 
L 2394 4666 
Q 3366 4666 3802 4372 
Q 4238 4078 4238 3431 
Q 4238 3091 4078 2852 
Q 3919 2613 3616 2497 
z
" transform="scale(0.015625)"/>
      <path id="DejaVuSans-Bold-72" d="M 3138 2547 
Q 2991 2616 2845 2648 
Q 2700 2681 2553 2681 
Q 2122 2681 1889 2404 
Q 1656 2128 1656 1613 
L 1656 0 
L 538 0 
L 538 3500 
L 1656 3500 
L 1656 2925 
Q 1872 3269 2151 3426 
Q 2431 3584 2822 3584 
Q 2878 3584 2943 3579 
Q 3009 3575 3134 3559 
L 3138 2547 
z
" transform="scale(0.015625)"/>
      <path id="DejaVuSans-Bold-65" d="M 4031 1759 
L 4031 1441 
L 1416 1441 
Q 1456 1047 1700 850 
Q 1944 653 2381 653 
Q 2734 653 3104 758 
Q 3475 863 3866 1075 
L 3866 213 
Q 3469 63 3072 -14 
Q 2675 -91 2278 -91 
Q 1328 -91 801 392 
Q 275 875 275 1747 
Q 275 2603 792 3093 
Q 1309 3584 2216 3584 
Q 3041 3584 3536 3087 
Q 4031 2591 4031 1759 
z
M 2881 2131 
Q 2881 2450 2695 2645 
Q 2509 2841 2209 2841 
Q 1884 2841 1681 2658 
Q 1478 2475 1428 2131 
L 2881 2131 
z
" transform="scale(0.015625)"/>
      <path id="DejaVuSans-Bold-6b" d="M 538 4863 
L 1656 4863 
L 1656 2216 
L 2944 3500 
L 4244 3500 
L 2534 1894 
L 4378 0 
L 3022 0 
L 1656 1459 
L 1656 0 
L 538 0 
L 538 4863 
z
" transform="scale(0.015625)"/>
      <path id="DejaVuSans-Bold-6f" d="M 2203 2784 
Q 1831 2784 1636 2517 
Q 1441 2250 1441 1747 
Q 1441 1244 1636 976 
Q 1831 709 2203 709 
Q 2569 709 2762 976 
Q 2956 1244 2956 1747 
Q 2956 2250 2762 2517 
Q 2569 2784 2203 2784 
z
M 2203 3584 
Q 3106 3584 3614 3096 
Q 4122 2609 4122 1747 
Q 4122 884 3614 396 
Q 3106 -91 2203 -91 
Q 1297 -91 786 396 
Q 275 884 275 1747 
Q 275 2609 786 3096 
Q 1297 3584 2203 3584 
z
" transform="scale(0.015625)"/>
      <path id="DejaVuSans-Bold-75" d="M 500 1363 
L 500 3500 
L 1625 3500 
L 1625 3150 
Q 1625 2866 1622 2436 
Q 1619 2006 1619 1863 
Q 1619 1441 1641 1255 
Q 1663 1069 1716 984 
Q 1784 875 1895 815 
Q 2006 756 2150 756 
Q 2500 756 2700 1025 
Q 2900 1294 2900 1772 
L 2900 3500 
L 4019 3500 
L 4019 0 
L 2900 0 
L 2900 506 
Q 2647 200 2364 54 
Q 2081 -91 1741 -91 
Q 1134 -91 817 281 
Q 500 653 500 1363 
z
" transform="scale(0.015625)"/>
      <path id="DejaVuSans-Bold-74" d="M 1759 4494 
L 1759 3500 
L 2913 3500 
L 2913 2700 
L 1759 2700 
L 1759 1216 
Q 1759 972 1856 886 
Q 1953 800 2241 800 
L 2816 800 
L 2816 0 
L 1856 0 
Q 1194 0 917 276 
Q 641 553 641 1216 
L 641 2700 
L 84 2700 
L 84 3500 
L 641 3500 
L 641 4494 
L 1759 4494 
z
" transform="scale(0.015625)"/>
      <path id="DejaVuSans-Bold-53" d="M 3834 4519 
L 3834 3531 
Q 3450 3703 3084 3790 
Q 2719 3878 2394 3878 
Q 1963 3878 1756 3759 
Q 1550 3641 1550 3391 
Q 1550 3203 1689 3098 
Q 1828 2994 2194 2919 
L 2706 2816 
Q 3484 2659 3812 2340 
Q 4141 2022 4141 1434 
Q 4141 663 3683 286 
Q 3225 -91 2284 -91 
Q 1841 -91 1394 -6 
Q 947 78 500 244 
L 500 1259 
Q 947 1022 1364 901 
Q 1781 781 2169 781 
Q 2563 781 2772 912 
Q 2981 1044 2981 1288 
Q 2981 1506 2839 1625 
Q 2697 1744 2272 1838 
L 1806 1941 
Q 1106 2091 782 2419 
Q 459 2747 459 3303 
Q 459 4000 909 4375 
Q 1359 4750 2203 4750 
Q 2588 4750 2994 4692 
Q 3400 4634 3834 4519 
z
" transform="scale(0.015625)"/>
      <path id="DejaVuSans-Bold-6d" d="M 3781 2919 
Q 3994 3244 4286 3414 
Q 4578 3584 4928 3584 
Q 5531 3584 5847 3212 
Q 6163 2841 6163 2131 
L 6163 0 
L 5038 0 
L 5038 1825 
Q 5041 1866 5042 1909 
Q 5044 1953 5044 2034 
Q 5044 2406 4934 2573 
Q 4825 2741 4581 2741 
Q 4263 2741 4089 2478 
Q 3916 2216 3909 1719 
L 3909 0 
L 2784 0 
L 2784 1825 
Q 2784 2406 2684 2573 
Q 2584 2741 2328 2741 
Q 2006 2741 1831 2477 
Q 1656 2213 1656 1722 
L 1656 0 
L 531 0 
L 531 3500 
L 1656 3500 
L 1656 2988 
Q 1863 3284 2130 3434 
Q 2397 3584 2719 3584 
Q 3081 3584 3359 3409 
Q 3638 3234 3781 2919 
z
" transform="scale(0.015625)"/>
      <path id="DejaVuSans-Bold-52" d="M 2297 2597 
Q 2675 2597 2839 2737 
Q 3003 2878 3003 3200 
Q 3003 3519 2839 3656 
Q 2675 3794 2297 3794 
L 1791 3794 
L 1791 2597 
L 2297 2597 
z
M 1791 1766 
L 1791 0 
L 588 0 
L 588 4666 
L 2425 4666 
Q 3347 4666 3776 4356 
Q 4206 4047 4206 3378 
Q 4206 2916 3982 2619 
Q 3759 2322 3309 2181 
Q 3556 2125 3751 1926 
Q 3947 1728 4147 1325 
L 4800 0 
L 3519 0 
L 2950 1159 
Q 2778 1509 2601 1637 
Q 2425 1766 2131 1766 
L 1791 1766 
z
" transform="scale(0.015625)"/>
      <path id="DejaVuSans-Bold-3a" d="M 716 3500 
L 1844 3500 
L 1844 2291 
L 716 2291 
L 716 3500 
z
M 716 1209 
L 1844 1209 
L 1844 0 
L 716 0 
L 716 1209 
z
" transform="scale(0.015625)"/>
      <path id="DejaVuSans-Bold-4f" d="M 2719 3878 
Q 2169 3878 1866 3472 
Q 1563 3066 1563 2328 
Q 1563 1594 1866 1187 
Q 2169 781 2719 781 
Q 3272 781 3575 1187 
Q 3878 1594 3878 2328 
Q 3878 3066 3575 3472 
Q 3272 3878 2719 3878 
z
M 2719 4750 
Q 3844 4750 4481 4106 
Q 5119 3463 5119 2328 
Q 5119 1197 4481 553 
Q 3844 -91 2719 -91 
Q 1597 -91 958 553 
Q 319 1197 319 2328 
Q 319 3463 958 4106 
Q 1597 4750 2719 4750 
z
" transform="scale(0.015625)"/>
      <path id="DejaVuSans-Bold-67" d="M 2919 594 
Q 2688 288 2409 144 
Q 2131 0 1766 0 
Q 1125 0 706 504 
Q 288 1009 288 1791 
Q 288 2575 706 3076 
Q 1125 3578 1766 3578 
Q 2131 3578 2409 3434 
Q 2688 3291 2919 2981 
L 2919 3500 
L 4044 3500 
L 4044 353 
Q 4044 -491 3511 -936 
Q 2978 -1381 1966 -1381 
Q 1638 -1381 1331 -1331 
Q 1025 -1281 716 -1178 
L 716 -306 
Q 1009 -475 1290 -558 
Q 1572 -641 1856 -641 
Q 2406 -641 2662 -400 
Q 2919 -159 2919 353 
L 2919 594 
z
M 2181 2772 
Q 1834 2772 1640 2515 
Q 1447 2259 1447 1791 
Q 1447 1309 1634 1061 
Q 1822 813 2181 813 
Q 2531 813 2725 1069 
Q 2919 1325 2919 1791 
Q 2919 2259 2725 2515 
Q 2531 2772 2181 2772 
z
" transform="scale(0.015625)"/>
      <path id="DejaVuSans-Bold-44" d="M 1791 3756 
L 1791 909 
L 2222 909 
Q 2959 909 3348 1275 
Q 3738 1641 3738 2338 
Q 3738 3031 3350 3393 
Q 2963 3756 2222 3756 
L 1791 3756 
z
M 588 4666 
L 1856 4666 
Q 2919 4666 3439 4514 
Q 3959 4363 4331 4000 
Q 4659 3684 4818 3271 
Q 4978 2859 4978 2338 
Q 4978 1809 4818 1395 
Q 4659 981 4331 666 
Q 3956 303 3431 151 
Q 2906 0 1856 0 
L 588 0 
L 588 4666 
z
" transform="scale(0.015625)"/>
      <path id="DejaVuSans-Bold-51" d="M 2847 -84 
L 2753 -84 
Q 1600 -84 959 553 
Q 319 1191 319 2328 
Q 319 3463 958 4106 
Q 1597 4750 2719 4750 
Q 3853 4750 4486 4112 
Q 5119 3475 5119 2328 
Q 5119 1541 4783 972 
Q 4447 403 3816 116 
L 4756 -934 
L 3609 -934 
L 2847 -84 
z
M 2719 3878 
Q 2169 3878 1866 3472 
Q 1563 3066 1563 2328 
Q 1563 1578 1859 1179 
Q 2156 781 2719 781 
Q 3272 781 3575 1187 
Q 3878 1594 3878 2328 
Q 3878 3066 3575 3472 
Q 3272 3878 2719 3878 
z
" transform="scale(0.015625)"/>
      <path id="DejaVuSans-Bold-4e" d="M 588 4666 
L 1931 4666 
L 3628 1466 
L 3628 4666 
L 4769 4666 
L 4769 0 
L 3425 0 
L 1728 3200 
L 1728 0 
L 588 0 
L 588 4666 
z
" transform="scale(0.015625)"/>
      <path id="DejaVuSans-Bold-76" d="M 97 3500 
L 1216 3500 
L 2088 1081 
L 2956 3500 
L 4078 3500 
L 2700 0 
L 1472 0 
L 97 3500 
z
" transform="scale(0.015625)"/>
      <path id="DejaVuSans-Bold-73" d="M 3272 3391 
L 3272 2541 
Q 2913 2691 2578 2766 
Q 2244 2841 1947 2841 
Q 1628 2841 1473 2761 
Q 1319 2681 1319 2516 
Q 1319 2381 1436 2309 
Q 1553 2238 1856 2203 
L 2053 2175 
Q 2913 2066 3209 1816 
Q 3506 1566 3506 1031 
Q 3506 472 3093 190 
Q 2681 -91 1863 -91 
Q 1516 -91 1145 -36 
Q 775 19 384 128 
L 384 978 
Q 719 816 1070 734 
Q 1422 653 1784 653 
Q 2113 653 2278 743 
Q 2444 834 2444 1013 
Q 2444 1163 2330 1236 
Q 2216 1309 1875 1350 
L 1678 1375 
Q 931 1469 631 1722 
Q 331 1975 331 2491 
Q 331 3047 712 3315 
Q 1094 3584 1881 3584 
Q 2191 3584 2531 3537 
Q 2872 3491 3272 3391 
z
" transform="scale(0.015625)"/>
     </defs>
     <use xlink:href="#DejaVuSans-Bold-42"/>
     <use xlink:href="#DejaVuSans-Bold-72" transform="translate(76.220703 0)"/>
     <use xlink:href="#DejaVuSans-Bold-65" transform="translate(125.537109 0)"/>
     <use xlink:href="#DejaVuSans-Bold-61" transform="translate(193.359375 0)"/>
     <use xlink:href="#DejaVuSans-Bold-6b" transform="translate(260.839844 0)"/>
     <use xlink:href="#DejaVuSans-Bold-6f" transform="translate(324.71875 0)"/>
     <use xlink:href="#DejaVuSans-Bold-75" transform="translate(393.419922 0)"/>
     <use xlink:href="#DejaVuSans-Bold-74" transform="translate(464.611328 0)"/>
     <use xlink:href="#DejaVuSans-Bold-20" transform="translate(512.414062 0)"/>
     <use xlink:href="#DejaVuSans-Bold-53" transform="translate(547.228516 0)"/>
     <use xlink:href="#DejaVuSans-Bold-6d" transform="translate(619.25 0)"/>
     <use xlink:href="#DejaVuSans-Bold-6f" transform="translate(723.449219 0)"/>
     <use xlink:href="#DejaVuSans-Bold-6b" transform="translate(792.150391 0)"/>
     <use xlink:href="#DejaVuSans-Bold-65" transform="translate(856.029297 0)"/>
     <use xlink:href="#DejaVuSans-Bold-20" transform="translate(923.851562 0)"/>
     <use xlink:href="#DejaVuSans-Bold-52" transform="translate(958.666016 0)"/>
     <use xlink:href="#DejaVuSans-Bold-75" transform="translate(1035.667969 0)"/>
     <use xlink:href="#DejaVuSans-Bold-6e" transform="translate(1106.859375 0)"/>
     <use xlink:href="#DejaVuSans-Bold-3a" transform="translate(1178.050781 0)"/>
     <use xlink:href="#DejaVuSans-Bold-20" transform="translate(1218.041016 0)"/>
     <use xlink:href="#DejaVuSans-Bold-4f" transform="translate(1252.855469 0)"/>
     <use xlink:href="#DejaVuSans-Bold-72" transform="translate(1337.865234 0)"/>
     <use xlink:href="#DejaVuSans-Bold-69" transform="translate(1387.181641 0)"/>
     <use xlink:href="#DejaVuSans-Bold-67" transform="translate(1421.458984 0)"/>
     <use xlink:href="#DejaVuSans-Bold-69" transform="translate(1493.041016 0)"/>
     <use xlink:href="#DejaVuSans-Bold-6e" transform="translate(1527.318359 0)"/>
     <use xlink:href="#DejaVuSans-Bold-61" transform="translate(1598.509766 0)"/>
     <use xlink:href="#DejaVuSans-Bold-6c" transform="translate(1665.990234 0)"/>
     <use xlink:href="#DejaVuSans-Bold-20" transform="translate(1700.267578 0)"/>
     <use xlink:href="#DejaVuSans-Bold-44" transform="translate(1735.082031 0)"/>
     <use xlink:href="#DejaVuSans-Bold-51" transform="translate(1818.089844 0)"/>
     <use xlink:href="#DejaVuSans-Bold-4e" transform="translate(1903.099609 0)"/>
     <use xlink:href="#DejaVuSans-Bold-20" transform="translate(1986.791016 0)"/>
     <use xlink:href="#DejaVuSans-Bold-76" transform="translate(2021.605469 0)"/>
     <use xlink:href="#DejaVuSans-Bold-73" transform="translate(2086.791016 0)"/>
     <use xlink:href="#DejaVuSans-Bold-20" transform="translate(2146.3125 0)"/>
     <use xlink:href="#DejaVuSans-Bold-44" transform="translate(2181.126953 0)"/>
     <use xlink:href="#DejaVuSans-Bold-75" transform="translate(2264.134766 0)"/>
     <use xlink:href="#DejaVuSans-Bold-65" transform="translate(2335.326172 0)"/>
     <use xlink:href="#DejaVuSans-Bold-6c" transform="translate(2403.148438 0)"/>
     <use xlink:href="#DejaVuSans-Bold-69" transform="translate(2437.425781 0)"/>
     <use xlink:href="#DejaVuSans-Bold-6e" transform="translate(2471.703125 0)"/>
     <use xlink:href="#DejaVuSans-Bold-67" transform="translate(2542.894531 0)"/>
     <use xlink:href="#DejaVuSans-Bold-20" transform="translate(2614.476562 0)"/>
     <use xlink:href="#DejaVuSans-Bold-44" transform="translate(2649.291016 0)"/>
     <use xlink:href="#DejaVuSans-Bold-51" transform="translate(2732.298828 0)"/>
     <use xlink:href="#DejaVuSans-Bold-4e" transform="translate(2817.308594 0)"/>
    </g>
   </g>
   <g id="legend_1">
    <g id="line2d_35">
     <path d="M 535.156926 64.778438 
L 545.156926 64.778438 
L 555.156926 64.778438 
" style="fill: none; stroke: #b94f45; stroke-width: 2.8; stroke-linecap: square"/>
     <g>
      <use xlink:href="#md72ec5c277" x="545.156926" y="64.778438" style="fill: #b94f45; stroke: #b94f45"/>
     </g>
    </g>
    <g id="text_38">
     <!-- Original DQN -->
     <g transform="translate(563.156926 68.278438) scale(0.1 -0.1)">
      <defs>
       <path id="DejaVuSans-4f" d="M 2522 4238 
Q 1834 4238 1429 3725 
Q 1025 3213 1025 2328 
Q 1025 1447 1429 934 
Q 1834 422 2522 422 
Q 3209 422 3611 934 
Q 4013 1447 4013 2328 
Q 4013 3213 3611 3725 
Q 3209 4238 2522 4238 
z
M 2522 4750 
Q 3503 4750 4090 4092 
Q 4678 3434 4678 2328 
Q 4678 1225 4090 567 
Q 3503 -91 2522 -91 
Q 1538 -91 948 565 
Q 359 1222 359 2328 
Q 359 3434 948 4092 
Q 1538 4750 2522 4750 
z
" transform="scale(0.015625)"/>
       <path id="DejaVuSans-44" d="M 1259 4147 
L 1259 519 
L 2022 519 
Q 2988 519 3436 956 
Q 3884 1394 3884 2338 
Q 3884 3275 3436 3711 
Q 2988 4147 2022 4147 
L 1259 4147 
z
M 628 4666 
L 1925 4666 
Q 3281 4666 3915 4102 
Q 4550 3538 4550 2338 
Q 4550 1131 3912 565 
Q 3275 0 1925 0 
L 628 0 
L 628 4666 
z
" transform="scale(0.015625)"/>
       <path id="DejaVuSans-51" d="M 2522 4238 
Q 1834 4238 1429 3725 
Q 1025 3213 1025 2328 
Q 1025 1447 1429 934 
Q 1834 422 2522 422 
Q 3209 422 3611 934 
Q 4013 1447 4013 2328 
Q 4013 3213 3611 3725 
Q 3209 4238 2522 4238 
z
M 3406 84 
L 4238 -825 
L 3475 -825 
L 2784 -78 
Q 2681 -84 2626 -87 
Q 2572 -91 2522 -91 
Q 1538 -91 948 567 
Q 359 1225 359 2328 
Q 359 3434 948 4092 
Q 1538 4750 2522 4750 
Q 3503 4750 4090 4092 
Q 4678 3434 4678 2328 
Q 4678 1516 4351 937 
Q 4025 359 3406 84 
z
" transform="scale(0.015625)"/>
       <path id="DejaVuSans-4e" d="M 628 4666 
L 1478 4666 
L 3547 763 
L 3547 4666 
L 4159 4666 
L 4159 0 
L 3309 0 
L 1241 3903 
L 1241 0 
L 628 0 
L 628 4666 
z
" transform="scale(0.015625)"/>
      </defs>
      <use xlink:href="#DejaVuSans-4f"/>
      <use xlink:href="#DejaVuSans-72" transform="translate(78.710938 0)"/>
      <use xlink:href="#DejaVuSans-69" transform="translate(119.824219 0)"/>
      <use xlink:href="#DejaVuSans-67" transform="translate(147.607422 0)"/>
      <use xlink:href="#DejaVuSans-69" transform="translate(211.083984 0)"/>
      <use xlink:href="#DejaVuSans-6e" transform="translate(238.867188 0)"/>
      <use xlink:href="#DejaVuSans-61" transform="translate(302.246094 0)"/>
      <use xlink:href="#DejaVuSans-6c" transform="translate(363.525391 0)"/>
      <use xlink:href="#DejaVuSans-20" transform="translate(391.308594 0)"/>
      <use xlink:href="#DejaVuSans-44" transform="translate(423.095703 0)"/>
      <use xlink:href="#DejaVuSans-51" transform="translate(500.097656 0)"/>
      <use xlink:href="#DejaVuSans-4e" transform="translate(578.808594 0)"/>
     </g>
    </g>
    <g id="line2d_36">
     <path d="M 535.156926 79.456563 
L 545.156926 79.456563 
L 555.156926 79.456563 
" style="fill: none; stroke: #226f68; stroke-width: 2.8; stroke-linecap: square"/>
     <g>
      <use xlink:href="#me51a5896a2" x="545.156926" y="79.456563" style="fill: #226f68; stroke: #226f68"/>
     </g>
    </g>
    <g id="text_39">
     <!-- Dueling DQN -->
     <g transform="translate(563.156926 82.956563) scale(0.1 -0.1)">
      <use xlink:href="#DejaVuSans-44"/>
      <use xlink:href="#DejaVuSans-75" transform="translate(77.001953 0)"/>
      <use xlink:href="#DejaVuSans-65" transform="translate(140.380859 0)"/>
      <use xlink:href="#DejaVuSans-6c" transform="translate(201.904297 0)"/>
      <use xlink:href="#DejaVuSans-69" transform="translate(229.6875 0)"/>
      <use xlink:href="#DejaVuSans-6e" transform="translate(257.470703 0)"/>
      <use xlink:href="#DejaVuSans-67" transform="translate(320.849609 0)"/>
      <use xlink:href="#DejaVuSans-20" transform="translate(384.326172 0)"/>
      <use xlink:href="#DejaVuSans-44" transform="translate(416.113281 0)"/>
      <use xlink:href="#DejaVuSans-51" transform="translate(493.115234 0)"/>
      <use xlink:href="#DejaVuSans-4e" transform="translate(571.826172 0)"/>
     </g>
    </g>
   </g>
  </g>
  <g id="axes_2">
   <g id="table_1">
    <g id="patch_7">
     <path d="M 683.58544 118.918563 
L 837.602257 118.918563 
L 837.602257 101.727573 
L 683.58544 101.727573 
z
" style="fill: #f8f3ea; stroke: #d7c7aa; stroke-linejoin: miter"/>
    </g>
    <g id="text_40">
     <!-- metric -->
     <g style="fill: #172026" transform="translate(698.987121 112.944474) scale(0.095 -0.095)">
      <defs>
       <path id="DejaVuSans-Bold-63" d="M 3366 3391 
L 3366 2478 
Q 3138 2634 2908 2709 
Q 2678 2784 2431 2784 
Q 1963 2784 1702 2511 
Q 1441 2238 1441 1747 
Q 1441 1256 1702 982 
Q 1963 709 2431 709 
Q 2694 709 2930 787 
Q 3166 866 3366 1019 
L 3366 103 
Q 3103 6 2833 -42 
Q 2563 -91 2291 -91 
Q 1344 -91 809 395 
Q 275 881 275 1747 
Q 275 2613 809 3098 
Q 1344 3584 2291 3584 
Q 2566 3584 2833 3536 
Q 3100 3488 3366 3391 
z
" transform="scale(0.015625)"/>
      </defs>
      <use xlink:href="#DejaVuSans-Bold-6d"/>
      <use xlink:href="#DejaVuSans-Bold-65" transform="translate(104.199219 0)"/>
      <use xlink:href="#DejaVuSans-Bold-74" transform="translate(172.021484 0)"/>
      <use xlink:href="#DejaVuSans-Bold-72" transform="translate(219.824219 0)"/>
      <use xlink:href="#DejaVuSans-Bold-69" transform="translate(269.140625 0)"/>
      <use xlink:href="#DejaVuSans-Bold-63" transform="translate(303.417969 0)"/>
     </g>
    </g>
    <g id="patch_8">
     <path d="M 837.602257 118.918563 
L 931.999662 118.918563 
L 931.999662 101.727573 
L 837.602257 101.727573 
z
" style="fill: #f8f3ea; stroke: #d7c7aa; stroke-linejoin: miter"/>
    </g>
    <g id="text_41">
     <!-- value -->
     <g style="fill: #172026" transform="translate(847.041998 112.944474) scale(0.095 -0.095)">
      <use xlink:href="#DejaVuSans-Bold-76"/>
      <use xlink:href="#DejaVuSans-Bold-61" transform="translate(65.185547 0)"/>
      <use xlink:href="#DejaVuSans-Bold-6c" transform="translate(132.666016 0)"/>
      <use xlink:href="#DejaVuSans-Bold-75" transform="translate(166.943359 0)"/>
      <use xlink:href="#DejaVuSans-Bold-65" transform="translate(238.134766 0)"/>
     </g>
    </g>
    <g id="patch_9">
     <path d="M 683.58544 136.109554 
L 837.602257 136.109554 
L 837.602257 118.918563 
L 683.58544 118.918563 
z
" style="fill: #fffdf7; stroke: #d7c7aa; stroke-linejoin: miter"/>
    </g>
    <g id="text_42">
     <!-- Original DQN -->
     <g style="fill: #b94f45" transform="translate(698.987121 130.098355) scale(0.095 -0.095)">
      <use xlink:href="#DejaVuSans-Bold-4f"/>
      <use xlink:href="#DejaVuSans-Bold-72" transform="translate(85.009766 0)"/>
      <use xlink:href="#DejaVuSans-Bold-69" transform="translate(134.326172 0)"/>
      <use xlink:href="#DejaVuSans-Bold-67" transform="translate(168.603516 0)"/>
      <use xlink:href="#DejaVuSans-Bold-69" transform="translate(240.185547 0)"/>
      <use xlink:href="#DejaVuSans-Bold-6e" transform="translate(274.462891 0)"/>
      <use xlink:href="#DejaVuSans-Bold-61" transform="translate(345.654297 0)"/>
      <use xlink:href="#DejaVuSans-Bold-6c" transform="translate(413.134766 0)"/>
      <use xlink:href="#DejaVuSans-Bold-20" transform="translate(447.412109 0)"/>
      <use xlink:href="#DejaVuSans-Bold-44" transform="translate(482.226562 0)"/>
      <use xlink:href="#DejaVuSans-Bold-51" transform="translate(565.234375 0)"/>
      <use xlink:href="#DejaVuSans-Bold-4e" transform="translate(650.244141 0)"/>
     </g>
    </g>
    <g id="patch_10">
     <path d="M 837.602257 136.109554 
L 931.999662 136.109554 
L 931.999662 118.918563 
L 837.602257 118.918563 
z
" style="fill: #fffdf7; stroke: #d7c7aa; stroke-linejoin: miter"/>
    </g>
    <g id="patch_11">
     <path d="M 683.58544 153.300544 
L 837.602257 153.300544 
L 837.602257 136.109554 
L 683.58544 136.109554 
z
" style="fill: #fffdf7; stroke: #d7c7aa; stroke-linejoin: miter"/>
    </g>
    <g id="text_43">
     <!-- final running -->
     <g style="fill: #6c6a62" transform="translate(698.987121 147.326455) scale(0.095 -0.095)">
      <defs>
       <path id="DejaVuSans-66" d="M 2375 4863 
L 2375 4384 
L 1825 4384 
Q 1516 4384 1395 4259 
Q 1275 4134 1275 3809 
L 1275 3500 
L 2222 3500 
L 2222 3053 
L 1275 3053 
L 1275 0 
L 697 0 
L 697 3053 
L 147 3053 
L 147 3500 
L 697 3500 
L 697 3744 
Q 697 4328 969 4595 
Q 1241 4863 1831 4863 
L 2375 4863 
z
" transform="scale(0.015625)"/>
      </defs>
      <use xlink:href="#DejaVuSans-66"/>
      <use xlink:href="#DejaVuSans-69" transform="translate(35.205078 0)"/>
      <use xlink:href="#DejaVuSans-6e" transform="translate(62.988281 0)"/>
      <use xlink:href="#DejaVuSans-61" transform="translate(126.367188 0)"/>
      <use xlink:href="#DejaVuSans-6c" transform="translate(187.646484 0)"/>
      <use xlink:href="#DejaVuSans-20" transform="translate(215.429688 0)"/>
      <use xlink:href="#DejaVuSans-72" transform="translate(247.216797 0)"/>
      <use xlink:href="#DejaVuSans-75" transform="translate(288.330078 0)"/>
      <use xlink:href="#DejaVuSans-6e" transform="translate(351.708984 0)"/>
      <use xlink:href="#DejaVuSans-6e" transform="translate(415.087891 0)"/>
      <use xlink:href="#DejaVuSans-69" transform="translate(478.466797 0)"/>
      <use xlink:href="#DejaVuSans-6e" transform="translate(506.25 0)"/>
      <use xlink:href="#DejaVuSans-67" transform="translate(569.628906 0)"/>
     </g>
    </g>
    <g id="patch_12">
     <path d="M 837.602257 153.300544 
L 931.999662 153.300544 
L 931.999662 136.109554 
L 837.602257 136.109554 
z
" style="fill: #fffdf7; stroke: #d7c7aa; stroke-linejoin: miter"/>
    </g>
    <g id="text_44">
     <!-- 1.286 -->
     <g style="fill: #172026" transform="translate(847.041998 147.326455) scale(0.095 -0.095)">
      <defs>
       <path id="DejaVuSans-Bold-38" d="M 2228 2088 
Q 1891 2088 1709 1903 
Q 1528 1719 1528 1375 
Q 1528 1031 1709 848 
Q 1891 666 2228 666 
Q 2563 666 2741 848 
Q 2919 1031 2919 1375 
Q 2919 1722 2741 1905 
Q 2563 2088 2228 2088 
z
M 1350 2484 
Q 925 2613 709 2878 
Q 494 3144 494 3541 
Q 494 4131 934 4440 
Q 1375 4750 2228 4750 
Q 3075 4750 3515 4442 
Q 3956 4134 3956 3541 
Q 3956 3144 3739 2878 
Q 3522 2613 3097 2484 
Q 3572 2353 3814 2058 
Q 4056 1763 4056 1313 
Q 4056 619 3595 264 
Q 3134 -91 2228 -91 
Q 1319 -91 855 264 
Q 391 619 391 1313 
Q 391 1763 633 2058 
Q 875 2353 1350 2484 
z
M 1631 3419 
Q 1631 3141 1786 2991 
Q 1941 2841 2228 2841 
Q 2509 2841 2662 2991 
Q 2816 3141 2816 3419 
Q 2816 3697 2662 3845 
Q 2509 3994 2228 3994 
Q 1941 3994 1786 3844 
Q 1631 3694 1631 3419 
z
" transform="scale(0.015625)"/>
       <path id="DejaVuSans-Bold-36" d="M 2316 2303 
Q 2000 2303 1842 2098 
Q 1684 1894 1684 1484 
Q 1684 1075 1842 870 
Q 2000 666 2316 666 
Q 2634 666 2792 870 
Q 2950 1075 2950 1484 
Q 2950 1894 2792 2098 
Q 2634 2303 2316 2303 
z
M 3803 4544 
L 3803 3681 
Q 3506 3822 3243 3889 
Q 2981 3956 2731 3956 
Q 2194 3956 1894 3657 
Q 1594 3359 1544 2772 
Q 1750 2925 1990 3001 
Q 2231 3078 2516 3078 
Q 3231 3078 3670 2659 
Q 4109 2241 4109 1563 
Q 4109 813 3618 361 
Q 3128 -91 2303 -91 
Q 1394 -91 895 523 
Q 397 1138 397 2266 
Q 397 3422 980 4083 
Q 1563 4744 2578 4744 
Q 2900 4744 3203 4694 
Q 3506 4644 3803 4544 
z
" transform="scale(0.015625)"/>
      </defs>
      <use xlink:href="#DejaVuSans-Bold-31"/>
      <use xlink:href="#DejaVuSans-Bold-2e" transform="translate(69.580078 0)"/>
      <use xlink:href="#DejaVuSans-Bold-32" transform="translate(107.568359 0)"/>
      <use xlink:href="#DejaVuSans-Bold-38" transform="translate(177.148438 0)"/>
      <use xlink:href="#DejaVuSans-Bold-36" transform="translate(246.728516 0)"/>
     </g>
    </g>
    <g id="patch_13">
     <path d="M 683.58544 170.491534 
L 837.602257 170.491534 
L 837.602257 153.300544 
L 683.58544 153.300544 
z
" style="fill: #fffdf7; stroke: #d7c7aa; stroke-linejoin: miter"/>
    </g>
    <g id="text_45">
     <!-- mean last 5 -->
     <g style="fill: #6c6a62" transform="translate(698.987121 164.517445) scale(0.095 -0.095)">
      <use xlink:href="#DejaVuSans-6d"/>
      <use xlink:href="#DejaVuSans-65" transform="translate(97.412109 0)"/>
      <use xlink:href="#DejaVuSans-61" transform="translate(158.935547 0)"/>
      <use xlink:href="#DejaVuSans-6e" transform="translate(220.214844 0)"/>
      <use xlink:href="#DejaVuSans-20" transform="translate(283.59375 0)"/>
      <use xlink:href="#DejaVuSans-6c" transform="translate(315.380859 0)"/>
      <use xlink:href="#DejaVuSans-61" transform="translate(343.164062 0)"/>
      <use xlink:href="#DejaVuSans-73" transform="translate(404.443359 0)"/>
      <use xlink:href="#DejaVuSans-74" transform="translate(456.542969 0)"/>
      <use xlink:href="#DejaVuSans-20" transform="translate(495.751953 0)"/>
      <use xlink:href="#DejaVuSans-35" transform="translate(527.539062 0)"/>
     </g>
    </g>
    <g id="patch_14">
     <path d="M 837.602257 170.491534 
L 931.999662 170.491534 
L 931.999662 153.300544 
L 837.602257 153.300544 
z
" style="fill: #fffdf7; stroke: #d7c7aa; stroke-linejoin: miter"/>
    </g>
    <g id="text_46">
     <!-- 0.800 -->
     <g style="fill: #172026" transform="translate(847.041998 164.517445) scale(0.095 -0.095)">
      <use xlink:href="#DejaVuSans-Bold-30"/>
      <use xlink:href="#DejaVuSans-Bold-2e" transform="translate(69.580078 0)"/>
      <use xlink:href="#DejaVuSans-Bold-38" transform="translate(107.568359 0)"/>
      <use xlink:href="#DejaVuSans-Bold-30" transform="translate(177.148438 0)"/>
      <use xlink:href="#DejaVuSans-Bold-30" transform="translate(246.728516 0)"/>
     </g>
    </g>
    <g id="patch_15">
     <path d="M 683.58544 187.682524 
L 837.602257 187.682524 
L 837.602257 170.491534 
L 683.58544 170.491534 
z
" style="fill: #fffdf7; stroke: #d7c7aa; stroke-linejoin: miter"/>
    </g>
    <g id="text_47">
     <!-- best reward -->
     <g style="fill: #6c6a62" transform="translate(698.987121 181.708435) scale(0.095 -0.095)">
      <defs>
       <path id="DejaVuSans-62" d="M 3116 1747 
Q 3116 2381 2855 2742 
Q 2594 3103 2138 3103 
Q 1681 3103 1420 2742 
Q 1159 2381 1159 1747 
Q 1159 1113 1420 752 
Q 1681 391 2138 391 
Q 2594 391 2855 752 
Q 3116 1113 3116 1747 
z
M 1159 2969 
Q 1341 3281 1617 3432 
Q 1894 3584 2278 3584 
Q 2916 3584 3314 3078 
Q 3713 2572 3713 1747 
Q 3713 922 3314 415 
Q 2916 -91 2278 -91 
Q 1894 -91 1617 61 
Q 1341 213 1159 525 
L 1159 0 
L 581 0 
L 581 4863 
L 1159 4863 
L 1159 2969 
z
" transform="scale(0.015625)"/>
      </defs>
      <use xlink:href="#DejaVuSans-62"/>
      <use xlink:href="#DejaVuSans-65" transform="translate(63.476562 0)"/>
      <use xlink:href="#DejaVuSans-73" transform="translate(125 0)"/>
      <use xlink:href="#DejaVuSans-74" transform="translate(177.099609 0)"/>
      <use xlink:href="#DejaVuSans-20" transform="translate(216.308594 0)"/>
      <use xlink:href="#DejaVuSans-72" transform="translate(248.095703 0)"/>
      <use xlink:href="#DejaVuSans-65" transform="translate(286.958984 0)"/>
      <use xlink:href="#DejaVuSans-77" transform="translate(348.482422 0)"/>
      <use xlink:href="#DejaVuSans-61" transform="translate(430.269531 0)"/>
      <use xlink:href="#DejaVuSans-72" transform="translate(491.548828 0)"/>
      <use xlink:href="#DejaVuSans-64" transform="translate(530.912109 0)"/>
     </g>
    </g>
    <g id="patch_16">
     <path d="M 837.602257 187.682524 
L 931.999662 187.682524 
L 931.999662 170.491534 
L 837.602257 170.491534 
z
" style="fill: #fffdf7; stroke: #d7c7aa; stroke-linejoin: miter"/>
    </g>
    <g id="text_48">
     <!-- 3.000 -->
     <g style="fill: #172026" transform="translate(847.041998 181.708435) scale(0.095 -0.095)">
      <use xlink:href="#DejaVuSans-Bold-33"/>
      <use xlink:href="#DejaVuSans-Bold-2e" transform="translate(69.580078 0)"/>
      <use xlink:href="#DejaVuSans-Bold-30" transform="translate(107.568359 0)"/>
      <use xlink:href="#DejaVuSans-Bold-30" transform="translate(177.148438 0)"/>
      <use xlink:href="#DejaVuSans-Bold-30" transform="translate(246.728516 0)"/>
     </g>
    </g>
    <g id="patch_17">
     <path d="M 683.58544 204.873515 
L 837.602257 204.873515 
L 837.602257 187.682524 
L 683.58544 187.682524 
z
" style="fill: #fffdf7; stroke: #d7c7aa; stroke-linejoin: miter"/>
    </g>
    <g id="text_49">
     <!-- mean loss -->
     <g style="fill: #6c6a62" transform="translate(698.987121 198.899426) scale(0.095 -0.095)">
      <use xlink:href="#DejaVuSans-6d"/>
      <use xlink:href="#DejaVuSans-65" transform="translate(97.412109 0)"/>
      <use xlink:href="#DejaVuSans-61" transform="translate(158.935547 0)"/>
      <use xlink:href="#DejaVuSans-6e" transform="translate(220.214844 0)"/>
      <use xlink:href="#DejaVuSans-20" transform="translate(283.59375 0)"/>
      <use xlink:href="#DejaVuSans-6c" transform="translate(315.380859 0)"/>
      <use xlink:href="#DejaVuSans-6f" transform="translate(343.164062 0)"/>
      <use xlink:href="#DejaVuSans-73" transform="translate(404.345703 0)"/>
      <use xlink:href="#DejaVuSans-73" transform="translate(456.445312 0)"/>
     </g>
    </g>
    <g id="patch_18">
     <path d="M 837.602257 204.873515 
L 931.999662 204.873515 
L 931.999662 187.682524 
L 837.602257 187.682524 
z
" style="fill: #fffdf7; stroke: #d7c7aa; stroke-linejoin: miter"/>
    </g>
    <g id="text_50">
     <!-- 1.404 -->
     <g style="fill: #172026" transform="translate(847.041998 198.899426) scale(0.095 -0.095)">
      <defs>
       <path id="DejaVuSans-Bold-34" d="M 2356 3675 
L 1038 1722 
L 2356 1722 
L 2356 3675 
z
M 2156 4666 
L 3494 4666 
L 3494 1722 
L 4159 1722 
L 4159 850 
L 3494 850 
L 3494 0 
L 2356 0 
L 2356 850 
L 288 850 
L 288 1881 
L 2156 4666 
z
" transform="scale(0.015625)"/>
      </defs>
      <use xlink:href="#DejaVuSans-Bold-31"/>
      <use xlink:href="#DejaVuSans-Bold-2e" transform="translate(69.580078 0)"/>
      <use xlink:href="#DejaVuSans-Bold-34" transform="translate(107.568359 0)"/>
      <use xlink:href="#DejaVuSans-Bold-30" transform="translate(177.148438 0)"/>
      <use xlink:href="#DejaVuSans-Bold-34" transform="translate(246.728516 0)"/>
     </g>
    </g>
    <g id="patch_19">
     <path d="M 683.58544 222.064505 
L 837.602257 222.064505 
L 837.602257 204.873515 
L 683.58544 204.873515 
z
" style="fill: #fffdf7; stroke: #d7c7aa; stroke-linejoin: miter"/>
    </g>
    <g id="text_51">
     <!-- params -->
     <g style="fill: #6c6a62" transform="translate(698.987121 216.090416) scale(0.095 -0.095)">
      <use xlink:href="#DejaVuSans-70"/>
      <use xlink:href="#DejaVuSans-61" transform="translate(63.476562 0)"/>
      <use xlink:href="#DejaVuSans-72" transform="translate(124.755859 0)"/>
      <use xlink:href="#DejaVuSans-61" transform="translate(165.869141 0)"/>
      <use xlink:href="#DejaVuSans-6d" transform="translate(227.148438 0)"/>
      <use xlink:href="#DejaVuSans-73" transform="translate(324.560547 0)"/>
     </g>
    </g>
    <g id="patch_20">
     <path d="M 837.602257 222.064505 
L 931.999662 222.064505 
L 931.999662 204.873515 
L 837.602257 204.873515 
z
" style="fill: #fffdf7; stroke: #d7c7aa; stroke-linejoin: miter"/>
    </g>
    <g id="text_52">
     <!-- 1,686,180 -->
     <g style="fill: #172026" transform="translate(847.041998 216.090416) scale(0.095 -0.095)">
      <defs>
       <path id="DejaVuSans-Bold-2c" d="M 653 1209 
L 1778 1209 
L 1778 256 
L 1006 -909 
L 341 -909 
L 653 256 
L 653 1209 
z
" transform="scale(0.015625)"/>
      </defs>
      <use xlink:href="#DejaVuSans-Bold-31"/>
      <use xlink:href="#DejaVuSans-Bold-2c" transform="translate(69.580078 0)"/>
      <use xlink:href="#DejaVuSans-Bold-36" transform="translate(107.568359 0)"/>
      <use xlink:href="#DejaVuSans-Bold-38" transform="translate(177.148438 0)"/>
      <use xlink:href="#DejaVuSans-Bold-36" transform="translate(246.728516 0)"/>
      <use xlink:href="#DejaVuSans-Bold-2c" transform="translate(316.308594 0)"/>
      <use xlink:href="#DejaVuSans-Bold-31" transform="translate(354.296875 0)"/>
      <use xlink:href="#DejaVuSans-Bold-38" transform="translate(423.876953 0)"/>
      <use xlink:href="#DejaVuSans-Bold-30" transform="translate(493.457031 0)"/>
     </g>
    </g>
    <g id="patch_21">
     <path d="M 683.58544 239.255495 
L 837.602257 239.255495 
L 837.602257 222.064505 
L 683.58544 222.064505 
z
" style="fill: #fffdf7; stroke: #d7c7aa; stroke-linejoin: miter"/>
    </g>
    <g id="patch_22">
     <path d="M 837.602257 239.255495 
L 931.999662 239.255495 
L 931.999662 222.064505 
L 837.602257 222.064505 
z
" style="fill: #fffdf7; stroke: #d7c7aa; stroke-linejoin: miter"/>
    </g>
    <g id="patch_23">
     <path d="M 683.58544 256.446485 
L 837.602257 256.446485 
L 837.602257 239.255495 
L 683.58544 239.255495 
z
" style="fill: #fffdf7; stroke: #d7c7aa; stroke-linejoin: miter"/>
    </g>
    <g id="text_53">
     <!-- Dueling DQN -->
     <g style="fill: #226f68" transform="translate(698.987121 250.435287) scale(0.095 -0.095)">
      <use xlink:href="#DejaVuSans-Bold-44"/>
      <use xlink:href="#DejaVuSans-Bold-75" transform="translate(83.007812 0)"/>
      <use xlink:href="#DejaVuSans-Bold-65" transform="translate(154.199219 0)"/>
      <use xlink:href="#DejaVuSans-Bold-6c" transform="translate(222.021484 0)"/>
      <use xlink:href="#DejaVuSans-Bold-69" transform="translate(256.298828 0)"/>
      <use xlink:href="#DejaVuSans-Bold-6e" transform="translate(290.576172 0)"/>
      <use xlink:href="#DejaVuSans-Bold-67" transform="translate(361.767578 0)"/>
      <use xlink:href="#DejaVuSans-Bold-20" transform="translate(433.349609 0)"/>
      <use xlink:href="#DejaVuSans-Bold-44" transform="translate(468.164062 0)"/>
      <use xlink:href="#DejaVuSans-Bold-51" transform="translate(551.171875 0)"/>
      <use xlink:href="#DejaVuSans-Bold-4e" transform="translate(636.181641 0)"/>
     </g>
    </g>
    <g id="patch_24">
     <path d="M 837.602257 256.446485 
L 931.999662 256.446485 
L 931.999662 239.255495 
L 837.602257 239.255495 
z
" style="fill: #fffdf7; stroke: #d7c7aa; stroke-linejoin: miter"/>
    </g>
    <g id="patch_25">
     <path d="M 683.58544 273.637476 
L 837.602257 273.637476 
L 837.602257 256.446485 
L 683.58544 256.446485 
z
" style="fill: #fffdf7; stroke: #d7c7aa; stroke-linejoin: miter"/>
    </g>
    <g id="text_54">
     <!-- final running -->
     <g style="fill: #6c6a62" transform="translate(698.987121 267.663387) scale(0.095 -0.095)">
      <use xlink:href="#DejaVuSans-66"/>
      <use xlink:href="#DejaVuSans-69" transform="translate(35.205078 0)"/>
      <use xlink:href="#DejaVuSans-6e" transform="translate(62.988281 0)"/>
      <use xlink:href="#DejaVuSans-61" transform="translate(126.367188 0)"/>
      <use xlink:href="#DejaVuSans-6c" transform="translate(187.646484 0)"/>
      <use xlink:href="#DejaVuSans-20" transform="translate(215.429688 0)"/>
      <use xlink:href="#DejaVuSans-72" transform="translate(247.216797 0)"/>
      <use xlink:href="#DejaVuSans-75" transform="translate(288.330078 0)"/>
      <use xlink:href="#DejaVuSans-6e" transform="translate(351.708984 0)"/>
      <use xlink:href="#DejaVuSans-6e" transform="translate(415.087891 0)"/>
      <use xlink:href="#DejaVuSans-69" transform="translate(478.466797 0)"/>
      <use xlink:href="#DejaVuSans-6e" transform="translate(506.25 0)"/>
      <use xlink:href="#DejaVuSans-67" transform="translate(569.628906 0)"/>
     </g>
    </g>
    <g id="patch_26">
     <path d="M 837.602257 273.637476 
L 931.999662 273.637476 
L 931.999662 256.446485 
L 837.602257 256.446485 
z
" style="fill: #fffdf7; stroke: #d7c7aa; stroke-linejoin: miter"/>
    </g>
    <g id="text_55">
     <!-- 1.500 -->
     <g style="fill: #172026" transform="translate(847.041998 267.663387) scale(0.095 -0.095)">
      <use xlink:href="#DejaVuSans-Bold-31"/>
      <use xlink:href="#DejaVuSans-Bold-2e" transform="translate(69.580078 0)"/>
      <use xlink:href="#DejaVuSans-Bold-35" transform="translate(107.568359 0)"/>
      <use xlink:href="#DejaVuSans-Bold-30" transform="translate(177.148438 0)"/>
      <use xlink:href="#DejaVuSans-Bold-30" transform="translate(246.728516 0)"/>
     </g>
    </g>
    <g id="patch_27">
     <path d="M 683.58544 290.828466 
L 837.602257 290.828466 
L 837.602257 273.637476 
L 683.58544 273.637476 
z
" style="fill: #fffdf7; stroke: #d7c7aa; stroke-linejoin: miter"/>
    </g>
    <g id="text_56">
     <!-- mean last 5 -->
     <g style="fill: #6c6a62" transform="translate(698.987121 284.854377) scale(0.095 -0.095)">
      <use xlink:href="#DejaVuSans-6d"/>
      <use xlink:href="#DejaVuSans-65" transform="translate(97.412109 0)"/>
      <use xlink:href="#DejaVuSans-61" transform="translate(158.935547 0)"/>
      <use xlink:href="#DejaVuSans-6e" transform="translate(220.214844 0)"/>
      <use xlink:href="#DejaVuSans-20" transform="translate(283.59375 0)"/>
      <use xlink:href="#DejaVuSans-6c" transform="translate(315.380859 0)"/>
      <use xlink:href="#DejaVuSans-61" transform="translate(343.164062 0)"/>
      <use xlink:href="#DejaVuSans-73" transform="translate(404.443359 0)"/>
      <use xlink:href="#DejaVuSans-74" transform="translate(456.542969 0)"/>
      <use xlink:href="#DejaVuSans-20" transform="translate(495.751953 0)"/>
      <use xlink:href="#DejaVuSans-35" transform="translate(527.539062 0)"/>
     </g>
    </g>
    <g id="patch_28">
     <path d="M 837.602257 290.828466 
L 931.999662 290.828466 
L 931.999662 273.637476 
L 837.602257 273.637476 
z
" style="fill: #fffdf7; stroke: #d7c7aa; stroke-linejoin: miter"/>
    </g>
    <g id="text_57">
     <!-- 1.200 -->
     <g style="fill: #172026" transform="translate(847.041998 284.854377) scale(0.095 -0.095)">
      <use xlink:href="#DejaVuSans-Bold-31"/>
      <use xlink:href="#DejaVuSans-Bold-2e" transform="translate(69.580078 0)"/>
      <use xlink:href="#DejaVuSans-Bold-32" transform="translate(107.568359 0)"/>
      <use xlink:href="#DejaVuSans-Bold-30" transform="translate(177.148438 0)"/>
      <use xlink:href="#DejaVuSans-Bold-30" transform="translate(246.728516 0)"/>
     </g>
    </g>
    <g id="patch_29">
     <path d="M 683.58544 308.019456 
L 837.602257 308.019456 
L 837.602257 290.828466 
L 683.58544 290.828466 
z
" style="fill: #fffdf7; stroke: #d7c7aa; stroke-linejoin: miter"/>
    </g>
    <g id="text_58">
     <!-- best reward -->
     <g style="fill: #6c6a62" transform="translate(698.987121 302.045367) scale(0.095 -0.095)">
      <use xlink:href="#DejaVuSans-62"/>
      <use xlink:href="#DejaVuSans-65" transform="translate(63.476562 0)"/>
      <use xlink:href="#DejaVuSans-73" transform="translate(125 0)"/>
      <use xlink:href="#DejaVuSans-74" transform="translate(177.099609 0)"/>
      <use xlink:href="#DejaVuSans-20" transform="translate(216.308594 0)"/>
      <use xlink:href="#DejaVuSans-72" transform="translate(248.095703 0)"/>
      <use xlink:href="#DejaVuSans-65" transform="translate(286.958984 0)"/>
      <use xlink:href="#DejaVuSans-77" transform="translate(348.482422 0)"/>
      <use xlink:href="#DejaVuSans-61" transform="translate(430.269531 0)"/>
      <use xlink:href="#DejaVuSans-72" transform="translate(491.548828 0)"/>
      <use xlink:href="#DejaVuSans-64" transform="translate(530.912109 0)"/>
     </g>
    </g>
    <g id="patch_30">
     <path d="M 837.602257 308.019456 
L 931.999662 308.019456 
L 931.999662 290.828466 
L 837.602257 290.828466 
z
" style="fill: #fffdf7; stroke: #d7c7aa; stroke-linejoin: miter"/>
    </g>
    <g id="text_59">
     <!-- 3.000 -->
     <g style="fill: #172026" transform="translate(847.041998 302.045367) scale(0.095 -0.095)">
      <use xlink:href="#DejaVuSans-Bold-33"/>
      <use xlink:href="#DejaVuSans-Bold-2e" transform="translate(69.580078 0)"/>
      <use xlink:href="#DejaVuSans-Bold-30" transform="translate(107.568359 0)"/>
      <use xlink:href="#DejaVuSans-Bold-30" transform="translate(177.148438 0)"/>
      <use xlink:href="#DejaVuSans-Bold-30" transform="translate(246.728516 0)"/>
     </g>
    </g>
    <g id="patch_31">
     <path d="M 683.58544 325.210446 
L 837.602257 325.210446 
L 837.602257 308.019456 
L 683.58544 308.019456 
z
" style="fill: #fffdf7; stroke: #d7c7aa; stroke-linejoin: miter"/>
    </g>
    <g id="text_60">
     <!-- mean loss -->
     <g style="fill: #6c6a62" transform="translate(698.987121 319.236358) scale(0.095 -0.095)">
      <use xlink:href="#DejaVuSans-6d"/>
      <use xlink:href="#DejaVuSans-65" transform="translate(97.412109 0)"/>
      <use xlink:href="#DejaVuSans-61" transform="translate(158.935547 0)"/>
      <use xlink:href="#DejaVuSans-6e" transform="translate(220.214844 0)"/>
      <use xlink:href="#DejaVuSans-20" transform="translate(283.59375 0)"/>
      <use xlink:href="#DejaVuSans-6c" transform="translate(315.380859 0)"/>
      <use xlink:href="#DejaVuSans-6f" transform="translate(343.164062 0)"/>
      <use xlink:href="#DejaVuSans-73" transform="translate(404.345703 0)"/>
      <use xlink:href="#DejaVuSans-73" transform="translate(456.445312 0)"/>
     </g>
    </g>
    <g id="patch_32">
     <path d="M 837.602257 325.210446 
L 931.999662 325.210446 
L 931.999662 308.019456 
L 837.602257 308.019456 
z
" style="fill: #fffdf7; stroke: #d7c7aa; stroke-linejoin: miter"/>
    </g>
    <g id="text_61">
     <!-- 0.614 -->
     <g style="fill: #172026" transform="translate(847.041998 319.236358) scale(0.095 -0.095)">
      <use xlink:href="#DejaVuSans-Bold-30"/>
      <use xlink:href="#DejaVuSans-Bold-2e" transform="translate(69.580078 0)"/>
      <use xlink:href="#DejaVuSans-Bold-36" transform="translate(107.568359 0)"/>
      <use xlink:href="#DejaVuSans-Bold-31" transform="translate(177.148438 0)"/>
      <use xlink:href="#DejaVuSans-Bold-34" transform="translate(246.728516 0)"/>
     </g>
    </g>
    <g id="patch_33">
     <path d="M 683.58544 342.401437 
L 837.602257 342.401437 
L 837.602257 325.210446 
L 683.58544 325.210446 
z
" style="fill: #fffdf7; stroke: #d7c7aa; stroke-linejoin: miter"/>
    </g>
    <g id="text_62">
     <!-- params -->
     <g style="fill: #6c6a62" transform="translate(698.987121 336.427348) scale(0.095 -0.095)">
      <use xlink:href="#DejaVuSans-70"/>
      <use xlink:href="#DejaVuSans-61" transform="translate(63.476562 0)"/>
      <use xlink:href="#DejaVuSans-72" transform="translate(124.755859 0)"/>
      <use xlink:href="#DejaVuSans-61" transform="translate(165.869141 0)"/>
      <use xlink:href="#DejaVuSans-6d" transform="translate(227.148438 0)"/>
      <use xlink:href="#DejaVuSans-73" transform="translate(324.560547 0)"/>
     </g>
    </g>
    <g id="patch_34">
     <path d="M 837.602257 342.401437 
L 931.999662 342.401437 
L 931.999662 325.210446 
L 837.602257 325.210446 
z
" style="fill: #fffdf7; stroke: #d7c7aa; stroke-linejoin: miter"/>
    </g>
    <g id="text_63">
     <!-- 1,948,069 -->
     <g style="fill: #172026" transform="translate(847.041998 336.427348) scale(0.095 -0.095)">
      <use xlink:href="#DejaVuSans-Bold-31"/>
      <use xlink:href="#DejaVuSans-Bold-2c" transform="translate(69.580078 0)"/>
      <use xlink:href="#DejaVuSans-Bold-39" transform="translate(107.568359 0)"/>
      <use xlink:href="#DejaVuSans-Bold-34" transform="translate(177.148438 0)"/>
      <use xlink:href="#DejaVuSans-Bold-38" transform="translate(246.728516 0)"/>
      <use xlink:href="#DejaVuSans-Bold-2c" transform="translate(316.308594 0)"/>
      <use xlink:href="#DejaVuSans-Bold-30" transform="translate(354.296875 0)"/>
      <use xlink:href="#DejaVuSans-Bold-36" transform="translate(423.876953 0)"/>
      <use xlink:href="#DejaVuSans-Bold-39" transform="translate(493.457031 0)"/>
     </g>
    </g>
    <g id="patch_35">
     <path d="M 683.58544 359.592427 
L 837.602257 359.592427 
L 837.602257 342.401437 
L 683.58544 342.401437 
z
" style="fill: #fffdf7; stroke: #d7c7aa; stroke-linejoin: miter"/>
    </g>
    <g id="patch_36">
     <path d="M 837.602257 359.592427 
L 931.999662 359.592427 
L 931.999662 342.401437 
L 837.602257 342.401437 
z
" style="fill: #fffdf7; stroke: #d7c7aa; stroke-linejoin: miter"/>
    </g>
   </g>
   <g id="text_64">
    <!-- Dueling final Δ = +0.21 -->
    <g style="fill: #226f68" transform="translate(728.889738 395.3216) scale(0.12 -0.12)">
     <defs>
      <path id="DejaVuSans-Bold-394" d="M 4922 0 
L 31 0 
L 1759 4666 
L 3194 4666 
L 4922 0 
z
M 1559 909 
L 3384 909 
L 2478 3572 
L 1559 909 
z
" transform="scale(0.015625)"/>
      <path id="DejaVuSans-Bold-3d" d="M 678 3084 
L 4684 3084 
L 4684 2350 
L 678 2350 
L 678 3084 
z
M 678 1663 
L 4684 1663 
L 4684 922 
L 678 922 
L 678 1663 
z
" transform="scale(0.015625)"/>
      <path id="DejaVuSans-Bold-2b" d="M 3053 4013 
L 3053 2375 
L 4684 2375 
L 4684 1638 
L 3053 1638 
L 3053 0 
L 2309 0 
L 2309 1638 
L 678 1638 
L 678 2375 
L 2309 2375 
L 2309 4013 
L 3053 4013 
z
" transform="scale(0.015625)"/>
     </defs>
     <use xlink:href="#DejaVuSans-Bold-44"/>
     <use xlink:href="#DejaVuSans-Bold-75" transform="translate(83.007812 0)"/>
     <use xlink:href="#DejaVuSans-Bold-65" transform="translate(154.199219 0)"/>
     <use xlink:href="#DejaVuSans-Bold-6c" transform="translate(222.021484 0)"/>
     <use xlink:href="#DejaVuSans-Bold-69" transform="translate(256.298828 0)"/>
     <use xlink:href="#DejaVuSans-Bold-6e" transform="translate(290.576172 0)"/>
     <use xlink:href="#DejaVuSans-Bold-67" transform="translate(361.767578 0)"/>
     <use xlink:href="#DejaVuSans-Bold-20" transform="translate(433.349609 0)"/>
     <use xlink:href="#DejaVuSans-Bold-66" transform="translate(468.164062 0)"/>
     <use xlink:href="#DejaVuSans-Bold-69" transform="translate(511.669922 0)"/>
     <use xlink:href="#DejaVuSans-Bold-6e" transform="translate(545.947266 0)"/>
     <use xlink:href="#DejaVuSans-Bold-61" transform="translate(617.138672 0)"/>
     <use xlink:href="#DejaVuSans-Bold-6c" transform="translate(684.619141 0)"/>
     <use xlink:href="#DejaVuSans-Bold-20" transform="translate(718.896484 0)"/>
     <use xlink:href="#DejaVuSans-Bold-394" transform="translate(753.710938 0)"/>
     <use xlink:href="#DejaVuSans-Bold-20" transform="translate(831.103516 0)"/>
     <use xlink:href="#DejaVuSans-Bold-3d" transform="translate(865.917969 0)"/>
     <use xlink:href="#DejaVuSans-Bold-20" transform="translate(949.707031 0)"/>
     <use xlink:href="#DejaVuSans-Bold-2b" transform="translate(984.521484 0)"/>
     <use xlink:href="#DejaVuSans-Bold-30" transform="translate(1068.310547 0)"/>
     <use xlink:href="#DejaVuSans-Bold-2e" transform="translate(1137.890625 0)"/>
     <use xlink:href="#DejaVuSans-Bold-32" transform="translate(1175.878906 0)"/>
     <use xlink:href="#DejaVuSans-Bold-31" transform="translate(1245.458984 0)"/>
    </g>
   </g>
   <g id="text_65">
    <!-- Numeric Results -->
    <g transform="translate(738.663645 39.68) scale(0.15 -0.15)">
     <use xlink:href="#DejaVuSans-Bold-4e"/>
     <use xlink:href="#DejaVuSans-Bold-75" transform="translate(83.691406 0)"/>
     <use xlink:href="#DejaVuSans-Bold-6d" transform="translate(154.882812 0)"/>
     <use xlink:href="#DejaVuSans-Bold-65" transform="translate(259.082031 0)"/>
     <use xlink:href="#DejaVuSans-Bold-72" transform="translate(326.904297 0)"/>
     <use xlink:href="#DejaVuSans-Bold-69" transform="translate(376.220703 0)"/>
     <use xlink:href="#DejaVuSans-Bold-63" transform="translate(410.498047 0)"/>
     <use xlink:href="#DejaVuSans-Bold-20" transform="translate(469.775391 0)"/>
     <use xlink:href="#DejaVuSans-Bold-52" transform="translate(504.589844 0)"/>
     <use xlink:href="#DejaVuSans-Bold-65" transform="translate(581.591797 0)"/>
     <use xlink:href="#DejaVuSans-Bold-73" transform="translate(649.414062 0)"/>
     <use xlink:href="#DejaVuSans-Bold-75" transform="translate(708.935547 0)"/>
     <use xlink:href="#DejaVuSans-Bold-6c" transform="translate(780.126953 0)"/>
     <use xlink:href="#DejaVuSans-Bold-74" transform="translate(814.404297 0)"/>
     <use xlink:href="#DejaVuSans-Bold-73" transform="translate(862.207031 0)"/>
    </g>
   </g>
  </g>
 </g>
 <defs>
  <clipPath id="p2273c551b6">
   <rect x="57.01" y="51.68" width="580.509426" height="357.96"/>
  </clipPath>
 </defs>
</svg>
