<svg xmlns="http://www.w3.org/2000/svg" width="980" height="520" viewBox="0 0 980 520">
<defs>
<linearGradient id="bg" x1="0" y1="0" x2="1" y2="1"><stop offset="0" stop-color="#f8f3ea"/><stop offset="1" stop-color="#eaf3ef"/></linearGradient>
<linearGradient id="conv" x1="0" y1="0" x2="1" y2="1"><stop offset="0" stop-color="#2f6f68"/><stop offset="1" stop-color="#77b7a5"/></linearGradient>
<linearGradient id="value" x1="0" y1="0" x2="1" y2="1"><stop offset="0" stop-color="#c0842f"/><stop offset="1" stop-color="#f1c76b"/></linearGradient>
<linearGradient id="adv" x1="0" y1="0" x2="1" y2="1"><stop offset="0" stop-color="#b94f45"/><stop offset="1" stop-color="#e39b8f"/></linearGradient>
<filter id="shadow" x="-20%" y="-20%" width="140%" height="140%"><feDropShadow dx="0" dy="8" stdDeviation="8" flood-color="#172026" flood-opacity="0.14"/></filter>
<marker id="arrow" markerWidth="12" markerHeight="12" refX="10" refY="6" orient="auto"><path d="M2,2 L10,6 L2,10 Z" fill="#475158"/></marker>
<style>
.title { font: 700 28px Georgia, 'Times New Roman', serif; fill: #172026; }
.subtitle { font: 400 15px Georgia, 'Times New Roman', serif; fill: #6c6a62; }
.box-title { font: 700 16px Georgia, 'Times New Roman', serif; fill: #ffffff; }
.box-sub { font: 400 12px Georgia, 'Times New Roman', serif; fill: #fffaf1; }
.dark-title { font: 700 16px Georgia, 'Times New Roman', serif; fill: #172026; }
.dark-sub { font: 400 12px Georgia, 'Times New Roman', serif; fill: #475158; }
.arrow { stroke: #475158; stroke-width: 2.5; fill: none; marker-end: url(#arrow); }
</style>
</defs>
<rect width="980" height="520" fill="url(#bg)"/>
<rect x="24" y="24" width="932" height="472" rx="28" fill="#fffaf1" stroke="#d7c7aa"/>
<text x="490" y="66" text-anchor="middle" class="title">Dueling DQN Head for Atari Breakout</text>
<text x="490" y="92" text-anchor="middle" class="subtitle">Generated from scripts/dqn_architecture_spec.py, which is shared by code and figures</text>
<rect x="64" y="170" width="132" height="88" rx="18" fill="#172026" stroke="none" filter="url(#shadow)"/>
<text x="130" y="205" text-anchor="middle" class="box-title">Input</text>
<text x="130" y="229" text-anchor="middle" class="box-sub">4 x 84 x 84</text>
<path class="arrow" d="M196 214 H244"/>
<rect x="250" y="136" width="190" height="156" rx="18" fill="url(#conv)" stroke="none" filter="url(#shadow)"/>
<text x="345" y="169" text-anchor="middle" class="box-title">CNN Backbone</text>
<text x="345" y="194" text-anchor="middle" class="box-sub">Conv2D(32, 8x8, stride 4)</text>
<text x="345" y="214" text-anchor="middle" class="box-sub">Conv2D(64, 4x4, stride 2)</text>
<text x="345" y="234" text-anchor="middle" class="box-sub">Conv2D(64, 3x3, stride 1)</text>
<text x="345" y="254" text-anchor="middle" class="box-sub">Flatten</text>
<text x="345" y="274" text-anchor="middle" class="box-sub">Dense(512, relu)</text>
<path class="arrow" d="M440 214 H488"/>
<rect x="494" y="170" width="142" height="88" rx="18" fill="#40515b" stroke="none" filter="url(#shadow)"/>
<text x="565" y="205" text-anchor="middle" class="box-title">Shared FC</text>
<text x="565" y="229" text-anchor="middle" class="box-sub">Dense(512, relu)</text>
<path class="arrow" d="M636 214 C675 214 675 150 714 150"/>
<path class="arrow" d="M636 214 C675 214 675 300 714 300"/>
<rect x="720" y="108" width="190" height="92" rx="18" fill="url(#value)" stroke="none" filter="url(#shadow)"/>
<text x="815" y="142" text-anchor="middle" class="box-title">Value Stream</text>
<text x="815" y="166" text-anchor="middle" class="box-sub">Dense(256, relu) -&gt; Dense(1, linear): V(s)</text>
<rect x="720" y="258" width="190" height="92" rx="18" fill="url(#adv)" stroke="none" filter="url(#shadow)"/>
<text x="815" y="292" text-anchor="middle" class="box-title">Advantage Stream</text>
<text x="815" y="316" text-anchor="middle" class="box-sub">Dense(256, relu) -&gt; Dense(4, linear): A(s,a)</text>
<path class="arrow" d="M815 200 V374"/>
<path class="arrow" d="M815 350 V374"/>
<rect x="678" y="380" width="260" height="74" rx="18" fill="#f8f3ea" stroke="#d7c7aa" filter="url(#shadow)"/>
<text x="808" y="410" text-anchor="middle" class="dark-title">Combine</text>
<text x="808" y="435" text-anchor="middle" class="dark-sub">Q(s,a)=V(s)+(A(s,a)-mean(A))</text>
<rect x="78" y="356" width="478" height="84" rx="18" fill="#ffffff" stroke="#d7c7aa"/>
<text x="104" y="389" text-anchor="start" class="dark-title">Why this change?</text>
<text x="104" y="416" text-anchor="start" class="dark-sub">It separates state quality V(s) from action-specific advantage A(s,a).</text>
<text x="104" y="438" text-anchor="start" class="dark-sub">Only the network head changes, keeping the comparison fair.</text>
</svg>
